<?xml version="1.0" encoding="UTF-8"?>
<svg width="503px" height="434px" viewBox="0 0 503 434" version="1.1" xmlns="http://www.w3.org/2000/svg" xmlns:xlink="http://www.w3.org/1999/xlink">
    <!-- Generator: Sketch 51.3 (57544) - http://www.bohemiancoding.com/sketch -->
    <title>undraw_taken_yju1</title>
    <desc>Created with Sketch.</desc>
    <defs>
        <linearGradient x1="50%" y1="100.004407%" x2="50%" y2="-3.13124773e-15%" id="linearGradient-1">
            <stop stop-color="#808080" stop-opacity="0.25" offset="0%"></stop>
            <stop stop-color="#808080" stop-opacity="0.12" offset="54%"></stop>
            <stop stop-color="#808080" stop-opacity="0.1" offset="100%"></stop>
        </linearGradient>
        <linearGradient x1="45355%" y1="191601%" x2="45355%" y2="173058%" id="linearGradient-2">
            <stop stop-color="#808080" stop-opacity="0.25" offset="0%"></stop>
            <stop stop-color="#808080" stop-opacity="0.12" offset="54%"></stop>
            <stop stop-color="#808080" stop-opacity="0.1" offset="100%"></stop>
        </linearGradient>
        <linearGradient x1="49.4998976%" y1="26856%" x2="50.5001024%" y2="24903%" id="linearGradient-3">
            <stop stop-color="#808080" stop-opacity="0.25" offset="0%"></stop>
            <stop stop-color="#808080" stop-opacity="0.12" offset="54%"></stop>
            <stop stop-color="#808080" stop-opacity="0.1" offset="100%"></stop>
        </linearGradient>
        <linearGradient x1="46.5845126%" y1="25809%" x2="53.4154874%" y2="10327%" id="linearGradient-4">
            <stop stop-color="#808080" stop-opacity="0.25" offset="0%"></stop>
            <stop stop-color="#808080" stop-opacity="0.12" offset="54%"></stop>
            <stop stop-color="#808080" stop-opacity="0.1" offset="100%"></stop>
        </linearGradient>
    </defs>
    <g id="Desktop---Medium" stroke="none" stroke-width="1" fill="none" fill-rule="evenodd" opacity="0.498604911">
        <g id="404---Desktop-Medium" transform="translate(-245.000000, -216.000000)" fill-rule="nonzero">
            <g id="undraw_taken_yju1" transform="translate(245.000000, 216.000000)">
                <g id="Group" opacity="0.8" transform="translate(171.000000, 11.000000)" fill="url(#linearGradient-1)">
                    <ellipse id="Oval" cx="87.5" cy="67.4323719" rx="87.1785714" ry="67.4309358"></ellipse>
                </g>
                <ellipse id="Oval" fill="#6C63FF" cx="257.5" cy="79" rx="85.5" ry="66"></ellipse>
                <path d="M186.634632,86.957036 C186.634632,50.280811 224.995871,20.5483466 272.31325,20.5483466 C287.001917,20.4679262 301.544055,23.4717513 315,29.3657253 C299.941479,19.1895245 280.240362,13 258.678618,13 C211.361239,13 173,42.7324644 173,79.4086894 C173,104.035095 190.296061,125.536809 215.985886,137 C198.001812,124.830461 186.634632,106.926334 186.634632,86.957036 Z" id="Shape" fill="#FFFFFF" opacity="0.1"></path>
                <polygon id="Shape" fill="#6C63FF" opacity="0.2" points="259.5 105 354.75 269.502991 450 434 259.5 434 69 434 164.25 269.502991"></polygon>
                <g id="Group" opacity="0.3" transform="translate(204.000000, 268.000000)" fill="url(#linearGradient-2)">
                    <path d="M78.0893793,71.9316201 L85.5724138,49.8549721 C90.8575233,34.0708725 85.1415332,16.7070831 71.4924138,7.08335196 L71.5531034,7.04715084 C68.6078488,4.99019324 65.3805715,3.36464377 61.9702069,2.2203352 L61.8670345,2.1901676 L61.7517241,2.14793296 C58.439261,1.03729872 54.9871377,0.391521428 51.4951724,0.229273743 C50.2530575,0.172960894 49.0149885,0.172960894 47.7809655,0.229273743 C45.639765,0.341163258 43.5120101,0.633837415 41.4206897,1.10413408 C40.825931,1.23687151 40.2352184,1.38569832 39.6485517,1.55061453 C39.0618851,1.71553073 38.4792644,1.89050279 37.9006897,2.07553073 C36.7475862,2.45363128 35.6147126,2.88603352 34.502069,3.37273743 C33.9477701,3.61407821 33.3975172,3.86949721 32.8513103,4.13899441 C31.2197651,4.94388565 29.6479705,5.86330786 28.1478621,6.89027933 C27.6461609,7.23217877 27.1545747,7.58614525 26.6731034,7.95217877 C20.6725782,12.4859565 16.1814362,18.7082435 13.7826207,25.8113966 L2.03310345,60.5343017 C0.181351227,65.9891858 -0.375336036,71.7961328 0.40662069,77.5005587 C0.528,78.3774302 0.677701149,79.246257 0.855724138,80.1070391 C1.03374713,80.9678212 1.23604598,81.8205587 1.46262069,82.6652514 C1.62041379,83.2283799 1.79236782,83.787486 1.97848276,84.3425698 C2.25765517,85.1751955 2.56514943,85.9957542 2.90096552,86.8042458 C3.12349425,87.3432402 3.35816092,87.8782123 3.60496552,88.409162 C4.10262069,89.4670391 4.6468046,90.5007821 5.23751724,91.5103911 C5.82822989,92.52 6.46547126,93.5014525 7.14924138,94.4547486 C7.66308046,95.1667039 8.2011954,95.8625698 8.76358621,96.5423464 C9.51209195,97.4473743 10.3051034,98.3182123 11.1426207,99.1548603 C14.7680993,102.785936 19.1063259,105.63655 23.8874483,107.529385 L24.0937931,107.613855 C24.3501959,107.15886 24.6339279,106.719629 24.9434483,106.298547 C26.7641379,103.824804 29.9321379,102.075084 32.9484138,102.726704 C33.1668966,102.774972 33.3853793,102.835307 33.6038621,102.907709 C35.1332414,103.444693 36.6383448,104.397989 38.1131034,104.874637 C39.1988881,105.359661 40.4445197,105.344209 41.5177931,104.832402 C44.4612414,103.269721 43.3688276,98.3403352 45.9056552,96.1743017 C46.0214306,96.0765995 46.1430309,95.9859319 46.2697931,95.9027933 L46.1726897,95.7579888 C48.1208276,94.5512849 50.8336552,95.353743 53.0852414,96.1381006 C55.5128276,96.9827933 58.6808276,97.5559777 60.368,95.5830168 C61.5089655,94.2315084 61.430069,92.1740782 62.5103448,90.7562011 C63.7726897,89.1271508 66.1517241,88.9461453 68.2091034,89.2357542 C69.2954483,89.4046927 76.0016552,97.0793296 81.1906207,94.5271508 C72.8275862,87.467933 77.433931,73.8683799 78.0893793,71.9316201 Z" id="Shape"></path>
                </g>
                <path d="M228.461439,371.739895 C230.203932,369.339695 233.19362,367.659555 236.057991,368.313609 C238.922362,368.967664 241.637547,371.709892 244.191612,370.335778 C246.984374,368.835653 245.952007,364.101258 248.36882,362.031086 C250.236629,360.422952 253.065195,361.251021 255.38653,362.061088 C257.707864,362.871156 260.697552,363.423202 262.278923,361.533044 C263.35903,360.236936 263.287421,358.262772 264.31382,356.91866 C265.507308,355.35853 267.78687,355.160513 269.720321,355.460538 C270.752688,355.622552 277.11398,362.997166 282.037118,360.542962 C274.070585,353.726394 278.456654,340.669306 279.053398,338.815151 L286.142717,317.633386 C292.40791,298.72482 282.31145,278.277945 263.54402,271.867573 C244.739631,265.56767 224.405408,275.720065 218.030354,294.591466 L206.853338,327.906242 C200.830074,346.099359 209.9392,365.862299 227.637933,373 C227.886904,372.563645 228.161909,372.142841 228.461439,371.739895 Z" id="Shape" fill="#FFFFFF"></path>
                <circle id="Oval" fill="#000000" opacity="0.2" transform="translate(243.000000, 289.000000) rotate(-71.400000) translate(-243.000000, -289.000000) " cx="243" cy="289" r="4"></circle>
                <circle id="Oval" fill="#000000" opacity="0.2" transform="translate(265.000000, 298.000000) rotate(-71.400000) translate(-265.000000, -298.000000) " cx="265" cy="298" r="4"></circle>
                <ellipse id="Oval" fill="#E0E0E0" transform="translate(247.500000, 309.000000) rotate(-71.400000) translate(-247.500000, -309.000000) " cx="247.5" cy="309" rx="5.5" ry="4"></ellipse>
                <circle id="Oval" fill="#FFFFFF" transform="translate(329.500000, 290.500000) rotate(-71.400000) translate(-329.500000, -290.500000) " cx="329.5" cy="290.5" r="5.5"></circle>
                <circle id="Oval" fill="#FFFFFF" transform="translate(348.000000, 282.000000) rotate(-71.400000) translate(-348.000000, -282.000000) " cx="348" cy="282" r="3"></circle>
                <g id="Group" opacity="0.8" transform="translate(200.000000, 149.000000)" fill="url(#linearGradient-3)">
                    <rect id="Rectangle-path" x="0.216734694" y="0.0165" width="117.566531" height="10.7415"></rect>
                </g>
                <rect id="Rectangle-path" fill="#E0E0E0" x="200" y="147" width="117" height="11"></rect>
                <path d="M340.343699,60 C341.457218,64.2551282 342.021166,68.6332941 342.022001,73.0293706 C342.022001,109.448601 303.588887,138.972727 256.18285,138.972727 C217.384105,138.996503 184.603272,119.226573 174,92.0979021 C181.876031,122.275874 216.556942,145 258.160849,145 C305.566885,145 344,115.475874 344,79.0566434 C343.989193,72.5339984 342.749135,66.0708145 340.343699,60 Z" id="Shape" fill="#000000" opacity="0.1"></path>
                <g id="Group" opacity="0.8" transform="translate(81.000000, 62.000000)" fill="url(#linearGradient-4)">
                    <ellipse id="Oval" cx="177" cy="46.0629924" rx="176.511313" ry="45.9028867"></ellipse>
                </g>
                <path d="M259.5,63 C164.786398,63 88,82.7018434 88,107 L431,107 C431,82.6959658 354.213602,63 259.5,63 Z" id="Shape" fill="#FFFFFF"></path>
                <path d="M259.5,152 C354.213602,152 431,132.298157 431,108 L88,108 C88,132.304034 164.786398,152 259.5,152 Z" id="Shape" fill="#FFFFFF"></path>
                <path d="M259.5,152 C354.213602,152 431,132.298157 431,108 L88,108 C88,132.304034 164.786398,152 259.5,152 Z" id="Shape" fill="#000000" opacity="0.05"></path>
                <rect id="Rectangle-path" fill="#000000" opacity="0.05" x="178" y="97" width="164" height="23" rx="11.5"></rect>
                <path d="M79.3410541,34.0839762 C78.3249671,33.6275862 77.8099006,32.4841384 78.1413937,31.4207302 C78.1670406,31.3409349 78.1831482,31.2583834 78.1893802,31.1747998 C78.2208213,30.6872997 77.9280458,30.2371271 77.4696766,30.0681814 C77.0113074,29.8992356 76.4964065,30.0517148 76.2039423,30.443007 C76.1556875,30.5100735 76.1154264,30.5825435 76.0839762,30.6589459 C75.6275862,31.6750329 74.4841384,32.1900994 73.4207302,31.8586063 C73.3409349,31.8329594 73.2583834,31.8168518 73.1747998,31.8106198 C72.6872997,31.7791787 72.2371271,32.0719542 72.0681814,32.5303234 C71.8992356,32.9886926 72.0517148,33.5035935 72.443007,33.7960577 C72.5100735,33.8443125 72.5825435,33.8845736 72.6589459,33.9160238 C73.6750329,34.3724138 74.1900994,35.5158616 73.8586063,36.5792698 C73.8329594,36.6590651 73.8168518,36.7416166 73.8106198,36.8252002 C73.7791787,37.3127003 74.0719542,37.7628729 74.5303234,37.9318186 C74.9886926,38.1007644 75.5035935,37.9482852 75.7960577,37.556993 C75.8443125,37.4899265 75.8845736,37.4174565 75.9160238,37.3410541 C76.3724138,36.3249671 77.5158616,35.8099006 78.5792698,36.1413937 C78.6590651,36.1670406 78.7416166,36.1831482 78.8252002,36.1893802 C79.3127003,36.2208213 79.7628729,35.9280458 79.9318186,35.4696766 C80.1007644,35.0113074 79.9482852,34.4964065 79.556993,34.2039423 C79.4899265,34.1556875 79.4174565,34.1154264 79.3410541,34.0839762 Z" id="Shape" fill="#4D8AF0" opacity="0.5"></path>
                <path d="M383.341054,217.083976 C382.324967,216.627586 381.809901,215.484138 382.141394,214.42073 C382.167041,214.340935 382.183148,214.258383 382.18938,214.1748 C382.220821,213.6873 381.928046,213.237127 381.469677,213.068181 C381.011307,212.899236 380.496407,213.051715 380.203942,213.443007 C380.155688,213.510074 380.115426,213.582544 380.083976,213.658946 C379.627586,214.675033 378.484138,215.190099 377.42073,214.858606 C377.340935,214.832959 377.258383,214.816852 377.1748,214.81062 C376.6873,214.779179 376.237127,215.071954 376.068181,215.530323 C375.899236,215.988693 376.051715,216.503593 376.443007,216.796058 C376.510074,216.844312 376.582544,216.884574 376.658946,216.916024 C377.675033,217.372414 378.190099,218.515862 377.858606,219.57927 C377.832959,219.659065 377.816852,219.741617 377.81062,219.8252 C377.779179,220.3127 378.071954,220.762873 378.530323,220.931819 C378.988693,221.100764 379.503593,220.948285 379.796058,220.556993 C379.844312,220.489926 379.884574,220.417456 379.916024,220.341054 C380.372414,219.324967 381.515862,218.809901 382.57927,219.141394 C382.659065,219.167041 382.741617,219.183148 382.8252,219.18938 C383.3127,219.220821 383.762873,218.928046 383.931819,218.469677 C384.100764,218.011307 383.948285,217.496407 383.556993,217.203942 C383.489926,217.155688 383.417456,217.115426 383.341054,217.083976 Z" id="Shape" fill="#4D8AF0" opacity="0.5"></path>
                <path d="M49.3410541,301.083976 C48.3249671,300.627586 47.8099006,299.484138 48.1413937,298.42073 C48.1670406,298.340935 48.1831482,298.258383 48.1893802,298.1748 C48.2208213,297.6873 47.9280458,297.237127 47.4696766,297.068181 C47.0113074,296.899236 46.4964065,297.051715 46.2039423,297.443007 C46.1556875,297.510074 46.1154264,297.582544 46.0839762,297.658946 C45.6275862,298.675033 44.4841384,299.190099 43.4207302,298.858606 C43.3409349,298.832959 43.2583834,298.816852 43.1747998,298.81062 C42.6872997,298.779179 42.2371271,299.071954 42.0681814,299.530323 C41.8992356,299.988693 42.0517148,300.503593 42.443007,300.796058 C42.5100735,300.844312 42.5825435,300.884574 42.6589459,300.916024 C43.6750329,301.372414 44.1900994,302.515862 43.8586063,303.57927 C43.8329594,303.659065 43.8168518,303.741617 43.8106198,303.8252 C43.7791787,304.3127 44.0719542,304.762873 44.5303234,304.931819 C44.9886926,305.100764 45.5035935,304.948285 45.7960577,304.556993 C45.8443125,304.489926 45.8845736,304.417456 45.9160238,304.341054 C46.3724138,303.324967 47.5158616,302.809901 48.5792698,303.141394 C48.6590651,303.167041 48.7416166,303.183148 48.8252002,303.18938 C49.3127003,303.220821 49.7628729,302.928046 49.9318186,302.469677 C50.1007644,302.011307 49.9482852,301.496407 49.556993,301.203942 C49.4899265,301.155688 49.4174565,301.115426 49.3410541,301.083976 Z" id="Shape" fill="#4D8AF0" opacity="0.5"></path>
                <path d="M15.3410541,104.083976 C14.3249671,103.627586 13.8099006,102.484138 14.1413937,101.42073 C14.1670406,101.340935 14.1831482,101.258383 14.1893802,101.1748 C14.2208213,100.6873 13.9280458,100.237127 13.4696766,100.068181 C13.0113074,99.8992356 12.4964065,100.051715 12.2039423,100.443007 C12.1556875,100.510074 12.1154264,100.582544 12.0839762,100.658946 C11.6275862,101.675033 10.4841384,102.190099 9.42073022,101.858606 C9.34093495,101.832959 9.25838339,101.816852 9.17479985,101.81062 C8.68729968,101.779179 8.23712712,102.071954 8.06818138,102.530323 C7.89923565,102.988693 8.05171478,103.503593 8.44300703,103.796058 C8.51007353,103.844312 8.58254355,103.884574 8.65894589,103.916024 C9.67503288,104.372414 10.1900994,105.515862 9.85860625,106.57927 C9.83295941,106.659065 9.81685179,106.741617 9.81061984,106.8252 C9.77917872,107.3127 10.0719542,107.762873 10.5303234,107.931819 C10.9886926,108.100764 11.5035935,107.948285 11.7960577,107.556993 C11.8443125,107.489926 11.8845736,107.417456 11.9160238,107.341054 C12.3724138,106.324967 13.5158616,105.809901 14.5792698,106.141394 C14.6590651,106.167041 14.7416166,106.183148 14.8252002,106.18938 C15.3127003,106.220821 15.7628729,105.928046 15.9318186,105.469677 C16.1007644,105.011307 15.9482852,104.496407 15.556993,104.203942 C15.4899265,104.155688 15.4174565,104.115426 15.3410541,104.083976 Z" id="Shape" fill="#4D8AF0" opacity="0.5"></path>
                <path d="M378.342828,4.03271958 C377.347596,3.58205751 376.8431,2.45296078 377.16779,1.4028991 C377.19291,1.32410531 377.208687,1.24258984 377.214791,1.16005532 C377.245587,0.678673609 376.958821,0.234151012 376.509859,0.0673256589 C376.060898,-0.0994996945 375.556565,0.0510657212 375.270103,0.437446992 C375.222839,0.50367176 375.183404,0.575232237 375.152599,0.650675679 C374.705576,1.65401009 373.585597,2.16261222 372.544015,1.8352795 C372.465857,1.80995453 372.385,1.79404908 372.303132,1.78789534 C371.779765,1.67721283 371.254771,1.96893578 371.068133,2.47414689 C370.881494,2.979358 371.089302,3.54622297 371.556982,3.80764485 C371.622672,3.85529394 371.693655,3.89504976 371.768489,3.92610524 C372.763722,4.3767673 373.268217,5.50586404 372.943528,6.55592571 C372.918407,6.6347195 372.90263,6.71623498 372.896526,6.79876949 C372.845403,7.30085252 373.142928,7.77263346 373.615597,7.93899153 C374.088266,8.1053496 374.612397,7.92275389 374.882341,7.49768575 C374.929605,7.43146098 374.96904,7.3599005 374.999844,7.28445706 C375.446867,6.28112265 376.566847,5.77252052 377.608429,6.09985324 C377.686587,6.1251782 377.767444,6.14108366 377.849312,6.14723739 C378.326807,6.17828391 378.76774,5.88918292 378.933218,5.43656659 C379.098696,4.98395026 378.949347,4.47551169 378.566085,4.18671808 C378.498635,4.12580437 378.423581,4.07403362 378.342828,4.03271958 Z" id="Shape" fill="#4D8AF0" opacity="0.5"></path>
                <g id="Group" opacity="0.5" transform="translate(61.000000, 152.000000)" fill="#47E6B1">
                    <rect id="Rectangle-path" x="4.65874585" y="0.519444444" width="1.6825083" height="10.3888889"></rect>
                    <rect id="Rectangle-path" transform="translate(5.500000, 5.713889) rotate(90.000000) translate(-5.500000, -5.713889) " x="4.65874585" y="0.519444444" width="1.6825083" height="10.3888889"></rect>
                </g>
                <g id="Group" opacity="0.5" transform="translate(492.000000, 105.000000)" fill="#47E6B1">
                    <rect id="Rectangle-path" x="4.65874585" y="0.519444444" width="1.6825083" height="10.3888889"></rect>
                    <rect id="Rectangle-path" transform="translate(5.500000, 5.713889) rotate(90.000000) translate(-5.500000, -5.713889) " x="4.65874585" y="0.519444444" width="1.6825083" height="10.3888889"></rect>
                </g>
                <g id="Group" opacity="0.5" transform="translate(432.000000, 273.000000)" fill="#47E6B1">
                    <rect id="Rectangle-path" x="4.65874585" y="0.519444444" width="1.6825083" height="10.3888889"></rect>
                    <rect id="Rectangle-path" transform="translate(5.500000, 5.713889) rotate(90.000000) translate(-5.500000, -5.713889) " x="4.65874585" y="0.519444444" width="1.6825083" height="10.3888889"></rect>
                </g>
                <circle id="Oval" fill="#F55F44" opacity="0.5" cx="433" cy="50" r="4"></circle>
                <circle id="Oval" fill="#F55F44" opacity="0.5" cx="4" cy="8" r="4"></circle>
                <circle id="Oval" fill="#F55F44" opacity="0.5" cx="112" cy="214" r="4"></circle>
            </g>
        </g>
    </g>
</svg>