<?xml version="1.0" encoding="UTF-8"?>
<svg width="51px" height="45px" viewBox="0 0 51 45" version="1.1" xmlns="http://www.w3.org/2000/svg" xmlns:xlink="http://www.w3.org/1999/xlink">
    <!-- Generator: Sketch 52.5 (67469) - http://www.bohemiancoding.com/sketch -->
    <title>bar-chart</title>
    <desc>Created with Sketch.</desc>
    <g id="Gamer-Details---Medium-Desktop" stroke="none" stroke-width="1" fill="none" fill-rule="evenodd">
        <g id="Gamer-Details---Profile---Medium-Desktop---Zero-State" transform="translate(-147.000000, -779.000000)" fill="#A5A2A2" fill-rule="nonzero">
            <g id="Frequent-Champions-Card" transform="translate(15.000000, 670.000000)">
                <g id="Placeholder" transform="translate(40.000000, 109.000000)">
                    <g id="bar-chart" transform="translate(92.000000, 0.000000)">
                        <path d="M50.625,42 L50.625,45 L0,45 L0,42 L50.625,42 Z M5.95588255,24.0000001 L11.9117651,24.0000001 L11.9117651,39 L14.8897064,39 L14.8897064,21 L2.97794127,21 L2.97794127,39 L5.95588255,39 L5.95588255,24.0000001 Z M20.8455882,15 L26.8014703,15 L26.8014703,39 L29.7794113,39 L29.7794113,12 L17.8676472,12 L17.8676472,39 L20.8455882,39 L20.8455882,15 Z M35.7352962,3.00000011 L41.6911793,3.00000011 L41.6911793,39 L44.6691208,39 L44.6691208,0 L32.7573547,0 L32.7573547,39 L35.7352962,39 L35.7352962,3.00000011 Z" id="Shape"></path>
                    </g>
                </g>
            </g>
        </g>
    </g>
</svg>