<?xml version="1.0" encoding="UTF-8"?>
<svg width="10px" height="11px" viewBox="0 0 10 11" version="1.1" xmlns="http://www.w3.org/2000/svg" xmlns:xlink="http://www.w3.org/1999/xlink">
    <!-- Generator: Sketch 51.3 (57544) - http://www.bohemiancoding.com/sketch -->
    <title>bell</title>
    <desc>Created with Sketch.</desc>
    <defs></defs>
    <g id="Gamer-Details---Medium-Desktop" stroke="none" stroke-width="1" fill="none" fill-rule="evenodd">
        <g id="Gamer-Details---Summary---Medium-Desktop-Copy-4" transform="translate(-825.000000, -193.000000)" fill="#FFFFFF" fill-rule="nonzero">
            <g id="SUBSCIBE" transform="translate(825.000000, 191.000000)">
                <g id="bell" transform="translate(0.000000, 2.000000)">
                    <path d="M9.00705882,8.539453 C8.99882353,8.53099487 8.23529412,7.69754426 8.23529412,6.45094678 L8.23529412,4.30908931 C8.23529412,2.29150122 6.78352941,0.65062499 5,0.65062499 C3.21647059,0.65062499 1.76470588,2.29150122 1.76470588,4.30908931 L1.76470588,6.45094678 C1.76470588,7.66175989 0.996470588,8.53489862 0.989411765,8.54335675 L0.493529412,9.09833987 L9.52705882,9.09833987 L9.00705882,8.539453 Z M1.79529412,8.44771488 C2.05647059,7.99748238 2.35294118,7.30001239 2.35294118,6.45094678 L2.35294118,4.30908931 C2.35294118,2.65064621 3.54058824,1.30124998 5,1.30124998 C6.45941176,1.30124998 7.64705882,2.65064621 7.64705882,4.30908931 L7.64705882,6.45094678 C7.64705882,7.30977177 7.93823529,8.00138613 8.19882353,8.44771488 L1.79529412,8.44771488 Z M5.29411765,0.65062499 L4.70588235,0.65062499 L4.70588235,0 L5.29411765,0 L5.29411765,0.65062499 Z M5.29411765,9.10874987 L5.88235294,9.10874987 C5.88235294,9.64681673 5.48647059,10.0846874 5,10.0846874 C4.51352941,10.0846874 4.11764706,9.64681673 4.11764706,9.10874987 L4.70588235,9.10874987 C4.70588235,9.28832236 4.83823529,9.43406236 5,9.43406236 C5.16176471,9.43406236 5.29411765,9.28832236 5.29411765,9.10874987 Z" id="Shape"></path>
                </g>
            </g>
        </g>
    </g>
</svg>