<?xml version="1.0" encoding="UTF-8"?>
<svg width="11px" height="11px" viewBox="0 0 11 11" version="1.1" xmlns="http://www.w3.org/2000/svg" xmlns:xlink="http://www.w3.org/1999/xlink">
    <!-- Generator: Sketch 52.5 (67469) - http://www.bohemiancoding.com/sketch -->
    <title>check-circle</title>
    <desc>Created with Sketch.</desc>
    <g id="Gamer-Details---Medium-Desktop" stroke="none" stroke-width="1" fill="none" fill-rule="evenodd">
        <g id="Gamer-Details---Profile---Leagues---Default" transform="translate(-835.000000, -448.000000)" fill="#48D2A0" fill-rule="nonzero">
            <g id="check-circle" transform="translate(835.000000, 448.000000)">
                <path d="M11,5.5 C11,8.53757447 8.53757447,11 5.5,11 C2.46242537,11 0,8.53757447 0,5.5 C0,2.46242537 2.46242537,0 5.5,0 C8.53757447,0 11,2.46242537 11,5.5 Z M4.77852761,8.20842646 L8.73966129,4.28805856 C8.87416755,4.15493645 8.87416755,3.9390819 8.73966129,3.80595983 L8.25254928,3.32386108 C8.11804302,3.19071771 7.89994394,3.19071771 7.76541592,3.32386108 L4.53496093,6.52104903 L3.02673781,5.02834765 C2.89223145,4.89522547 2.67413232,4.89522547 2.5396045,5.02834765 L2.05249269,5.51044627 C1.91798637,5.64356846 1.91798637,5.85942316 2.05249269,5.99254504 L4.29139424,8.20840525 C4.42592206,8.34154834 4.64399979,8.34154834 4.77852761,8.20842646 Z" id="Shape"></path>
            </g>
        </g>
    </g>
</svg>