<?xml version="1.0" encoding="UTF-8"?>
<svg width="10px" height="9px" viewBox="0 0 10 9" version="1.1" xmlns="http://www.w3.org/2000/svg" xmlns:xlink="http://www.w3.org/1999/xlink">
    <!-- Generator: Sketch 52.5 (67469) - http://www.bohemiancoding.com/sketch -->
    <title>Shape</title>
    <desc>Created with Sketch.</desc>
    <g id="Symbols" stroke="none" stroke-width="1" fill="none" fill-rule="evenodd">
        <g id="Sort/filter-dropdowns" transform="translate(-77.000000, -8.000000)" fill="#E4E4E4" fill-rule="nonzero">
            <g id="Filter-Button" transform="translate(71.000000, 1.000000)">
                <path d="M7.10793983,12.390071 L7.10793983,14.7841206 L7.9728422,14.7841206 L7.9728422,12.390071 C8.61113997,12.2015225 9.08078194,11.6168483 9.08078194,10.9188722 C9.08078194,10.220896 8.61113997,9.63622225 7.9728422,9.44767353 L7.9728422,7 L7.10793983,7 L7.10793983,9.44767353 C6.46964196,9.63622225 6,10.220896 6,10.9188722 C6,11.6168483 6.46964196,12.2023874 7.10793983,12.390071 Z M7.54039085,10.2433834 C7.91316371,10.2433834 8.21587944,10.5469641 8.21587944,10.9188721 C8.21587944,11.2907801 7.91316371,11.5943608 7.54039085,11.5943608 C7.16761801,11.5943608 6.86490226,11.291645 6.86490226,10.9188721 C6.86490226,10.5460992 7.16761801,10.2433834 7.54039085,10.2433834 Z M10.5675489,10.5521537 L10.5675489,14.7841206 L11.4324512,14.7841206 L11.4324512,10.5521537 C12.070749,10.363605 12.540391,9.77893099 12.540391,9.08095486 C12.540391,8.38297873 12.070749,7.79830483 11.4324512,7.60975611 L11.4324512,7 L10.5675489,7 L10.5675489,7.60975611 C9.92925099,7.79830483 9.45960903,8.38297873 9.45960903,9.08095486 C9.45960903,9.77893099 9.92925099,10.3644698 10.5675489,10.5521537 Z M11.0000002,8.4054662 C11.3727732,8.4054662 11.6754889,8.70904691 11.6754889,9.08095489 C11.6754889,9.45286289 11.3727732,9.75730848 11.0000002,9.75730848 C10.6272273,9.75730848 10.3245115,9.45372779 10.3245115,9.08095489 C10.3245115,8.70818201 10.6272273,8.4054662 11.0000002,8.4054662 Z M14.459609,15.1447849 C15.3089431,15.1447849 16,14.453728 16,13.6043937 C16,12.9055528 15.530358,12.3217438 14.8920603,12.1331952 L14.8920603,7 L14.0271579,7 L14.0271579,12.1331952 C13.38886,12.3217438 12.9192181,12.9064179 12.9192181,13.6043937 C12.9192181,14.453728 13.610275,15.1447849 14.459609,15.1447849 Z M14.459609,12.92804 C14.8323818,12.92804 15.1350975,13.2316207 15.1350975,13.6035287 C15.1350975,13.9754368 14.8315169,14.2790174 14.459609,14.2790174 C14.0877012,14.2790174 13.7841206,13.9754368 13.7841206,13.6035287 C13.7841206,13.2316207 14.0868363,12.92804 14.459609,12.92804 Z" id="Shape"></path>
            </g>
        </g>
    </g>
</svg>