<?xml version="1.0" encoding="utf-8"?>
<!-- Generator: Adobe Illustrator 23.0.0, SVG Export Plug-In . SVG Version: 6.00 Build 0)  -->
<svg version="1.1" id="Layer_1" xmlns="http://www.w3.org/2000/svg" xmlns:xlink="http://www.w3.org/1999/xlink" x="0px" y="0px"
	 viewBox="0 0 500 87" style="enable-background:new 0 0 500 87;" xml:space="preserve">
<style type="text/css">
	.st0{fill:#FFFFFF;}
	.st1{font-family:'ProximaNovaA-Bold';}
	.st2{font-size:30px;}
</style>
<g id="XMLID_275_">
	<path id="XMLID_391_" class="st0" d="M0,36.3c0-3.1,0.6-6,1.7-8.6c1.2-2.5,2.7-4.6,4.7-6.2s4.1-2.8,6.5-3.6
		c2.4-0.8,4.9-1.3,7.6-1.3c1.8,0,3.6,0.3,5.4,0.7c1.9,0.4,3.5,1.1,4.7,2l4.2-5.2l5.7,4.6l-4.5,5.4c1.6,2,2.7,3.8,3.5,5.8
		c0.8,1.9,1.1,4,1.1,6.4c0,3.6-0.8,6.6-2.5,9.3s-4.2,4.6-7.5,5.9c1.9,0.7,3.5,1.4,4.8,2.5c1.4,1,2.4,2,3.1,3.2s1.3,2.3,1.5,3.5
		c0.3,1.1,0.5,2.4,0.5,3.6c0,2-0.3,4-1.1,5.7c-0.8,1.8-1.8,3.2-3.1,4.5c-1.3,1.3-2.8,2.3-4.5,3.1c-1.7,0.8-3.6,1.5-5.5,2
		c-2,0.4-3.9,0.6-5.9,0.6c-6.2,0-11.1-1.5-14.8-4.7c-3.4-3-5.2-7-5.2-12c0-0.3,0-0.4,0-0.7h7.9c0,0.2,0,0.3,0,0.3
		c0,2.7,1.1,4.8,3.4,6.5c2.4,1.7,5.3,2.5,8.7,2.5c2,0,3.9-0.3,5.7-0.8c1.8-0.5,3.2-1.4,4.5-2.7c1.4-1.4,2-3.1,1.8-5
		c-0.2-2.5-1.5-4.8-3.6-6s-4.8-2-8.2-2c-6.2,0-11.1-1.7-14.9-5.2C1.9,47.1,0,42.4,0,36.3z M8.3,36.7c0,3.7,1.2,6.7,3.6,8.8
		c2.5,2.1,5.5,3.1,9.2,3.1s6.6-1.1,9-3.4c2.4-2.2,3.6-5.1,3.6-8.6c0-3.7-1.2-6.6-3.6-8.8s-5.4-3.2-9-3.2c-2.3,0-4.4,0.4-6.3,1.3
		c-1.9,0.8-3.5,2.2-4.8,4.1C8.9,31.8,8.3,34,8.3,36.7z"/>
	<path id="XMLID_394_" class="st0" d="M45.2,37.8c0-4.2,0.9-8,2.7-11.1c1.9-3.1,4.2-5.5,7.3-7c3.1-1.5,6.5-2.3,10.3-2.3
		c2.8,0,5.4,0.6,7.9,1.9c2.5,1.3,4.2,3,5.4,5.2l0.3-6.2h8v39.4h-7.7l-0.4-6.7c-1.3,2.3-3.1,4.2-5.7,5.4s-7.7,2.1-7.7,2.1
		s-0.3,0-0.3,0c-5.8,0-10.5-1.8-14.3-5.4C47.1,49.3,45.2,44.2,45.2,37.8z M53.6,37.6c0,3.9,1.2,7.1,3.6,9.4c2.5,2.4,5.4,3.6,9,3.6
		c2,0,3.9-0.3,5.5-1.1s3-1.7,4-3c1-1.2,1.8-2.6,2.4-4.2c0.5-1.5,0.8-3.1,0.8-4.8c0-1.6-0.3-3.2-0.8-4.8c-0.5-1.5-1.4-2.9-2.4-4.2
		c-1-1.2-2.4-2.2-4-3c-1.6-0.8-3.5-1.1-5.5-1.1c-3.6,0-6.6,1.2-9,3.6C54.8,30.6,53.6,33.8,53.6,37.6z"/>
	<path id="XMLID_397_" class="st0" d="M94.9,57.5V18.2h7.6l0.5,5.3c1-2,2.5-3.6,4.6-4.5c2-0.9,4.2-1.4,6.4-1.4
		c1.8,0,3.4,0.3,4.9,0.8s3,1.4,4.2,2.5c1.4,1.2,2.4,2.8,3.1,4.7c2.8-5.3,7.3-7.9,13.4-7.9c5.3,0,9.4,1.6,12.3,4.8
		c2.9,3.2,4.2,7.6,4.2,13.4v21.8h-7.9V36c0-3.1-0.8-5.5-2.3-7.5c-1.5-2-3.6-2.9-6.5-2.9s-5.2,1-7,3.1c-1.8,2-2.6,4.5-2.6,7.5v21.4
		h-8.7V36.2c0-3-0.8-5.5-2.5-7.6s-3.8-3.1-6.6-3.1c-2.8,0-5.1,1-6.8,3.1s-2.5,4.5-2.5,7.6v21.4H94.9z"/>
	<path id="XMLID_399_" class="st0" d="M161.1,37.7c0-5.9,1.9-10.8,5.7-14.6s8.7-5.7,14.8-5.7c6.6,0,11.7,2,15.3,6
		c3,3.3,4.5,8,4.5,13.8c0,1.2-0.1,2.4-0.2,3.6h-31.7c0.3,3,1.7,5.3,4,7.1c2.3,1.8,5.2,2.7,8.7,2.7c2.1,0,4.2-0.3,6.4-1.1
		c2.1-0.8,3.8-1.8,4.9-3.1l5.3,5.2c-2,2.1-4.4,3.7-7.5,4.9c-3.1,1.1-6.1,1.7-9.3,1.7c-6.4,0-11.5-1.9-15.4-5.6
		C163,49,161.1,44,161.1,37.7z M169.7,34h23.7c-0.3-3.1-1.4-5.4-3.5-7c-2-1.6-4.8-2.5-8.1-2.5c-3.1,0-5.7,0.8-7.9,2.5
		C171.7,28.5,170.4,30.9,169.7,34z"/>
	<path id="XMLID_402_" class="st0" d="M206.1,57.5V18.2h7.4l0.5,5.2c1.3-2.3,2.9-3.9,4.8-4.8c1.9-0.8,4-1.3,6.4-1.3
		c1.8,0,3.5,0.3,5.2,0.9c1.7,0.6,3.1,1.4,4.2,2.5l-3.6,7.1c-1.9-1.6-4.1-2.4-6.6-2.4c-2.9,0-5.3,0.9-7.3,2.8c-2,1.9-3,4.5-3,8v21.3
		H206.1z"/>
	<path id="XMLID_404_" class="st0" d="M234.9,51.4l4.2-5.8c1.7,1.9,3.8,3.3,6.2,4.2c2.5,0.9,4.9,1.4,7.5,1.5c2.2,0,4.2-0.4,5.8-1.3
		c1.7-0.8,2.5-2.2,2.5-3.9c0-1.6-0.8-2.9-2.2-3.6c-1.5-0.8-3.7-1.4-6.8-1.6c-10.6-1-15.9-4.9-16-11.7c0-2,0.5-3.9,1.5-5.4
		c1-1.6,2.3-2.8,3.9-3.7c1.6-0.8,3.4-1.5,5.2-2c1.9-0.4,3.7-0.7,5.6-0.7c3.1,0,5.9,0.4,8.2,1.2c2.4,0.8,4.7,2.1,6.7,4l-4.6,5.3
		c-1.4-1.4-3.1-2.3-4.7-2.8c-1.6-0.5-3.5-0.8-5.6-0.8c-0.2,0-0.3,0-0.4,0c-2.3,0-4.2,0.4-5.6,1.2c-1.5,0.8-2.2,2-2.3,3.6
		c0,1.5,0.8,2.7,2.2,3.5c1.4,0.8,3.6,1.3,6.2,1.5c1.2,0.1,2.2,0.3,3.1,0.3c0.9,0.2,2,0.3,3.2,0.6c1.2,0.3,2.3,0.6,3.1,0.9
		c0.9,0.3,1.8,0.8,2.7,1.5c0.9,0.6,1.7,1.4,2.3,2.1c0.6,0.8,1.1,1.8,1.4,2.9c0.3,1.2,0.5,2.4,0.5,3.8c-0.1,3.6-1.6,6.7-4.6,8.9
		c-3,2.3-7,3.4-12,3.4c-3.6,0-6.8-0.5-9.8-1.6C239.9,56,237.2,54.2,234.9,51.4z"/>
	<path id="XMLID_406_" class="st0" d="M271.8,37.7c0-3.3,0.5-6.2,1.6-8.8c1.1-2.6,2.5-4.8,4.4-6.5c1.9-1.7,4.1-3,6.5-3.8
		c2.5-0.8,5.1-1.4,8-1.4c5.4,0,10.2,2,14.1,5.8l-5.2,5.5c-2.5-2.4-5.3-3.5-8.8-3.5c-3.6,0-6.5,1.2-8.9,3.5c-2.4,2.4-3.6,5.4-3.6,9.3
		c0,4,1.2,7,3.6,9.3c2.4,2.2,5.3,3.3,8.8,3.3c3.8,0,7-1.2,9.3-3.6l5.5,5.4c-4.2,4.1-9.1,6.1-14.8,6.1c-3.8,0-7.2-0.8-10.3-2.3
		c-3.1-1.5-5.5-3.8-7.4-7C272.7,45.7,271.8,42,271.8,37.7z"/>
	<path id="XMLID_408_" class="st0" d="M308.8,37.7c0-5.8,1.9-10.6,5.6-14.5c3.7-3.8,8.6-5.8,14.5-5.8c3.9,0,7.4,0.9,10.4,2.7
		c3.1,1.8,5.4,4.2,7.1,7.3S349,34,349,37.7c0,5.9-1.9,10.7-5.5,14.5c-3.7,3.8-8.6,5.8-14.6,5.8s-10.9-1.9-14.5-5.7
		C310.7,48.4,308.8,43.5,308.8,37.7z M316.9,37.7c0,3.6,1.1,6.6,3.2,9.1c2.1,2.5,5.1,3.6,8.7,3.6c3.6,0,6.5-1.2,8.7-3.6
		c2.2-2.5,3.2-5.4,3.2-9.1c0-3.6-1.1-6.5-3.4-9.1s-5.1-3.7-8.6-3.7c-3.6,0-6.5,1.3-8.7,3.7C318,31.1,316.9,34,316.9,37.7z"/>
	<path id="XMLID_411_" class="st0" d="M354,39.3V18.2h7.9v21c0,3.4,0.9,6.1,2.7,8.1c1.8,2,4.3,3.1,7.6,3.1c3.1,0,5.7-1.1,7.6-3.4
		c2-2.3,3-5.1,3-8.4V18.2h8.7v39.4h-7.4l-0.4-5.8c-3.6,4.2-8.1,6.3-13.4,6.3c-4.8,0-8.8-1.7-11.9-5C355.6,49.7,354,45.2,354,39.3z"
		/>
	<path id="XMLID_413_" class="st0" d="M396.1,25.1v-7h7.9V7.7l7.9-0.8v11.3h11.4v7h-11.4v18.6c0,4.2,1.8,6.5,5.4,6.5
		c1.4,0,3.1-0.4,4.8-1.4l2.2,7c-2.5,1.2-5.1,1.8-7.6,1.8c-0.3,0-0.4,0-0.6,0c-3.8,0-6.8-1.1-8.8-3.3c-2.2-2.4-3.4-5.9-3.4-10.4V25.1
		H396.1z"/>
</g>
<text transform="matrix(1 0 0 1 436.5636 21.7784)" class="st0 st1 st2">beta</text>
</svg>
