<svg xmlns="http://www.w3.org/2000/svg" viewBox="0 0 499.67 87"><defs><style>.a{fill:#ff4c4c;}.b{fill:#fff;}.c{isolation:isolate;}</style></defs><title>betalogo copy 2</title><path class="a" d="M410.08,45.67c-1.83,1.36-3.61,2.78-5.41,4.19-2.44,1.92-5.25,3.76-7.18,6.08-.22.26.21.58.52.43s.65-.36,1-.56c-.57,4.49-.22,9.15-.18,13.66,0,1.59,0,3.19,0,4.79-13.16-1.16-26.85-.94-40.07-1a86.15,86.15,0,0,0,7.83-10.68.46.46,0,0,0-.25-.71.48.48,0,0,0,.09-.39,143.87,143.87,0,0,0-4.2-15.33c8.16,1.09,17.1.57,25.27.43C394.73,46.46,402.74,46.7,410.08,45.67Z"/><path class="b" d="M4.12,35.1a25.37,25.37,0,0,1,2-10,20.06,20.06,0,0,1,5.45-7.19,24.11,24.11,0,0,1,7.53-4.17,27.47,27.47,0,0,1,8.81-1.5,28.66,28.66,0,0,1,6.26.81,13.79,13.79,0,0,1,5.44,2.31l4.87-6,6.61,5.33L45.84,21a25.91,25.91,0,0,1,4.06,6.72,18.78,18.78,0,0,1,1.27,7.42,19.5,19.5,0,0,1-2.89,10.78,17.22,17.22,0,0,1-8.7,6.83,18.29,18.29,0,0,1,5.57,2.9,12.07,12.07,0,0,1,3.59,3.71,12.28,12.28,0,0,1,1.74,4.06,16.33,16.33,0,0,1,.58,4.17,15.6,15.6,0,0,1-1.28,6.61,16.64,16.64,0,0,1-3.59,5.21A17.92,17.92,0,0,1,41,83a37.66,37.66,0,0,1-6.37,2.32,33.79,33.79,0,0,1-6.84.7c-7.18,0-12.86-1.74-17.15-5.45a17.72,17.72,0,0,1-6-13.91v-.81h9.16v.35a8.83,8.83,0,0,0,3.94,7.53,17,17,0,0,0,10.08,2.9,24.6,24.6,0,0,0,6.61-.93,11.44,11.44,0,0,0,5.21-3.13,6.85,6.85,0,0,0,2.09-5.79,8.74,8.74,0,0,0-4.17-7A18.91,18.91,0,0,0,28,57.47c-7.18,0-12.86-2-17.27-6Q4.12,45.7,4.12,35.1Zm9.62.46c0,4.29,1.39,7.77,4.17,10.2a15.87,15.87,0,0,0,10.66,3.59A14.23,14.23,0,0,0,39,45.41a12.93,12.93,0,0,0,4.18-10A13.08,13.08,0,0,0,39,25.25a14.75,14.75,0,0,0-10.43-3.71,16.86,16.86,0,0,0-7.3,1.5,12.82,12.82,0,0,0-5.56,4.76A14.48,14.48,0,0,0,13.74,35.56Z"/><path class="b" d="M56.51,36.84A25.56,25.56,0,0,1,59.63,24a20.38,20.38,0,0,1,8.47-8.11A26.91,26.91,0,0,1,80,13.19a19.49,19.49,0,0,1,9.16,2.2,14.34,14.34,0,0,1,6.26,6l.35-7.18h9.27V59.9H96.14l-.46-7.77a14.4,14.4,0,0,1-6.61,6.26,48.61,48.61,0,0,1-8.92,2.44H79.8c-6.72,0-12.17-2.09-16.57-6.26C58.71,50.16,56.51,44.25,56.51,36.84Zm9.73-.24c0,4.52,1.39,8.23,4.17,10.9a15.64,15.64,0,0,0,16.81,2.9,12.8,12.8,0,0,0,4.63-3.48,16.7,16.7,0,0,0,2.79-4.87,17.47,17.47,0,0,0,.92-5.56,18.67,18.67,0,0,0-.92-5.57,17.07,17.07,0,0,0-2.79-4.86,13.84,13.84,0,0,0-11-4.75,14.16,14.16,0,0,0-10.43,4.17A15.78,15.78,0,0,0,66.24,36.6Z"/><path class="b" d="M114.11,59.67V14.12h8.81l.58,6.14a10.53,10.53,0,0,1,5.33-5.21,18,18,0,0,1,7.41-1.63,17.66,17.66,0,0,1,5.68.93,13.87,13.87,0,0,1,4.87,2.9,12.79,12.79,0,0,1,3.59,5.45c3.25-6.15,8.46-9.16,15.53-9.16q9.22,0,14.26,5.56c3.36,3.71,4.87,8.81,4.87,15.53V59.9h-9.16V34.75a13.92,13.92,0,0,0-2.66-8.69c-1.74-2.32-4.18-3.36-7.54-3.36a10.06,10.06,0,0,0-8.11,3.59,12.4,12.4,0,0,0-3,8.69v24.8H144.47V35a13.45,13.45,0,0,0-2.89-8.81,9.2,9.2,0,0,0-7.65-3.59,9.63,9.63,0,0,0-7.88,3.59,13.2,13.2,0,0,0-2.9,8.81v24.8h-9Z"/><path class="b" d="M190.83,36.72c0-6.84,2.21-12.52,6.61-16.92s10.08-6.61,17.15-6.61q11.47,0,17.74,7c3.47,3.82,5.21,9.27,5.21,16,0,1.39-.12,2.78-.23,4.17H200.57a11.52,11.52,0,0,0,4.63,8.23,15.86,15.86,0,0,0,10.09,3.13,21.46,21.46,0,0,0,7.42-1.27,13.66,13.66,0,0,0,5.67-3.6l6.15,6a23.18,23.18,0,0,1-8.7,5.68,31.68,31.68,0,0,1-10.77,2c-7.42,0-13.33-2.2-17.85-6.49C193,49.82,190.83,44,190.83,36.72Zm10-4.29h27.47c-.35-3.59-1.62-6.26-4.06-8.11a14.84,14.84,0,0,0-9.39-2.9,14.41,14.41,0,0,0-9.15,2.9C203.12,26.06,201.61,28.84,200.8,32.43Z"/><path class="b" d="M243,59.67V14.12h8.57l.58,6a12.92,12.92,0,0,1,5.57-5.57,18.9,18.9,0,0,1,7.41-1.5,17.71,17.71,0,0,1,6,1A12.6,12.6,0,0,1,276,17l-4.17,8.23a11.49,11.49,0,0,0-7.65-2.79,11.73,11.73,0,0,0-8.46,3.25c-2.32,2.2-3.48,5.21-3.48,9.27V59.67Z"/><path class="b" d="M276.37,52.6l4.86-6.72a18.08,18.08,0,0,0,7.19,4.86,27.93,27.93,0,0,0,8.69,1.74,13.79,13.79,0,0,0,6.73-1.5,4.74,4.74,0,0,0,2.89-4.52,4.49,4.49,0,0,0-2.55-4.18,19.7,19.7,0,0,0-7.88-1.85c-12.28-1.16-18.43-5.68-18.54-13.56a11.28,11.28,0,0,1,1.74-6.26A12.3,12.3,0,0,1,284,16.32,34,34,0,0,1,290,14a31.41,31.41,0,0,1,6.49-.81A29.56,29.56,0,0,1,306,14.58a20.79,20.79,0,0,1,7.76,4.64l-5.33,6.14A13.35,13.35,0,0,0,303,22.12a21.83,21.83,0,0,0-6.49-.93h-.46a13.1,13.1,0,0,0-6.49,1.39,4.74,4.74,0,0,0-2.67,4.17,4.59,4.59,0,0,0,2.55,4.06,18.09,18.09,0,0,0,7.19,1.74c1.39.11,2.55.35,3.59.35,1.05.23,2.32.34,3.71.69s2.67.7,3.59,1a10.56,10.56,0,0,1,3.13,1.74,13.47,13.47,0,0,1,2.67,2.44A10.1,10.1,0,0,1,315,42.17a17.47,17.47,0,0,1,.58,4.4,12.73,12.73,0,0,1-5.33,10.32c-3.48,2.66-8.11,3.94-13.91,3.94A32.36,32.36,0,0,1,284.94,59,20.89,20.89,0,0,1,276.37,52.6Z"/><path class="b" d="M319.13,36.72A25.73,25.73,0,0,1,321,26.52a20.61,20.61,0,0,1,5.1-7.53,21.54,21.54,0,0,1,7.53-4.41A30.12,30.12,0,0,1,342.89,13a22.9,22.9,0,0,1,16.35,6.72l-6,6.38A13.9,13.9,0,0,0,343,22a14.27,14.27,0,0,0-10.32,4.06,14.41,14.41,0,0,0-4.17,10.78c0,4.63,1.39,8.11,4.17,10.77a14.51,14.51,0,0,0,10.2,3.83c4.41,0,8.12-1.39,10.78-4.17l6.38,6.26a23.66,23.66,0,0,1-17.16,7.07A26.91,26.91,0,0,1,331,57.93a19.85,19.85,0,0,1-8.58-8.11A25.6,25.6,0,0,1,319.13,36.72Z"/><path class="b" d="M362,36.72a23.46,23.46,0,0,1,6.49-16.81c4.29-4.4,10-6.72,16.8-6.72a23.16,23.16,0,0,1,12.06,3.13,21.45,21.45,0,0,1,8.23,8.46,24.7,24.7,0,0,1,3,11.94,23.46,23.46,0,0,1-6.38,16.81c-4.28,4.4-10,6.72-16.92,6.72s-12.63-2.2-16.8-6.61A23.73,23.73,0,0,1,362,36.72Zm9.39,0a15.85,15.85,0,0,0,3.7,10.55c2.44,2.89,5.91,4.17,10.09,4.17a13,13,0,0,0,10.08-4.17A15.07,15.07,0,0,0,399,36.72a15.15,15.15,0,0,0-3.94-10.55,12.47,12.47,0,0,0-10-4.29A13.12,13.12,0,0,0,375,26.17,16.13,16.13,0,0,0,371.41,36.72Z"/><path class="b" d="M414.4,38.57V14.12h9.16V38.46q0,5.91,3.13,9.39a11.28,11.28,0,0,0,8.81,3.59,10.94,10.94,0,0,0,8.81-3.94,14.37,14.37,0,0,0,3.47-9.74V14.12h10.09V59.78h-8.58l-.46-6.72a19.71,19.71,0,0,1-15.53,7.3,18.22,18.22,0,0,1-13.8-5.79C416.26,50.63,414.4,45.41,414.4,38.57Z"/><path class="b" d="M463.2,22.12V14h9.15V2L481.51,1v13.1h13.21v8.11H481.51V43.79c0,4.87,2.09,7.53,6.26,7.53a11.12,11.12,0,0,0,5.56-1.62l2.55,8.11a20.45,20.45,0,0,1-8.81,2.09h-.69c-4.41,0-7.88-1.28-10.2-3.82-2.55-2.79-3.94-6.84-3.94-12.06V22.12Z"/><path class="a" d="M414.58,55.24l0,0q-7-.21-14-.52c1.78-1.28,3.4-2.75,5.06-4.07,2.22-1.75,4.42-3.51,6.53-5.33l.57-.11a19.3,19.3,0,0,0,.57,5.17C413.56,52,413.52,53.86,414.58,55.24Z"/><path class="a" d="M491.12,55l.32,1.33a.47.47,0,0,0-.36.45A139.91,139.91,0,0,0,492.78,82c-15.52.46-31,2.76-46.56,3.37A348.85,348.85,0,0,1,400,83.64c.25-2.85.27-5.71.26-8.58h0a.39.39,0,0,0,0-.47h0c0-1.7,0-3.41,0-5.1,0-4.45.33-9-.24-13.45a1,1,0,0,0,.41.11q23.22,1.08,46.47.89c7.59-.08,15.18-.22,22.76-.52C476.73,56.23,484.16,56.21,491.12,55Z"/><g class="c"><path class="b" d="M406.27,80.56V58.36c3.53.22,7.06.42,10.6.58a6.74,6.74,0,0,1,2.51.57,5.18,5.18,0,0,1,1.83,1.34,6,6,0,0,1,1.08,1.84,6.23,6.23,0,0,1,.37,2.15,5.5,5.5,0,0,1-1,3.33,3.94,3.94,0,0,1-2.46,1.62A4.42,4.42,0,0,1,422,71.72a6.2,6.2,0,0,1,1.11,3.65,6,6,0,0,1-1.53,4.27,5.28,5.28,0,0,1-4.32,1.52Q411.74,80.91,406.27,80.56Zm4.29-13.12c1.8.1,3.6.2,5.4.28a2.06,2.06,0,0,0,2.34-2.23A2.31,2.31,0,0,0,416,63.06l-5.4-.28Zm0,9.22,5.57.29a2.44,2.44,0,0,0,1.89-.59,2.38,2.38,0,0,0,.68-1.83,2.53,2.53,0,0,0-2.57-2.64c-1.85-.09-3.71-.18-5.57-.29Z"/><path class="b" d="M429,81.59V59.39q7.14.2,14.29.23v4.16q-5,0-10-.13v4.66c3.26.07,6.51.11,9.77.13V72.6c-3.26,0-6.51-.06-9.77-.12v5q5,.1,10,.13v4.16Q436.19,81.79,429,81.59Z"/><path class="b" d="M448.14,63.78V59.62q8.07,0,16.13-.25v4.17c-2,.05-3.93.1-5.9.13v18l-4.3.06v-18C452.09,63.76,450.12,63.78,448.14,63.78Z"/><path class="b" d="M465.68,81.54q3.88-11.22,7.77-22.49c1.8-.07,3.6-.16,5.39-.25q3.89,10.9,7.77,21.76c-1.62.11-3.25.2-4.87.29-.43-1.23-.85-2.45-1.27-3.68q-4.32.22-8.64.4l-1.28,3.8ZM473,73.36l6.3-.29-3.15-9.41Z"/></g></svg>