<?xml version="1.0" encoding="UTF-8"?>
<svg width="120px" height="21px" viewBox="0 0 120 21" version="1.1" xmlns="http://www.w3.org/2000/svg" xmlns:xlink="http://www.w3.org/1999/xlink">
    <!-- Generator: Sketch 51.3 (57544) - http://www.bohemiancoding.com/sketch -->
    <title>gs-logo</title>
    <desc>Created with Sketch.</desc>
    <defs></defs>
    <g id="gs-logo" stroke="none" stroke-width="1" fill="none" fill-rule="evenodd">
        <g fill="#FFFFFF" fill-rule="nonzero">
            <path d="M0,8.4 C0,7.512 0.168,6.696 0.48,5.976 C0.816,5.256 1.248,4.68 1.8,4.224 C2.352,3.768 2.952,3.432 3.648,3.192 C4.32,2.952 5.04,2.832 5.784,2.832 C6.288,2.832 6.792,2.904 7.32,3.024 C7.848,3.144 8.304,3.336 8.64,3.576 L9.816,2.112 L11.424,3.408 L10.152,4.944 C10.608,5.496 10.92,6.024 11.136,6.576 C11.352,7.104 11.448,7.704 11.448,8.376 C11.448,9.384 11.208,10.248 10.728,10.992 C10.248,11.736 9.552,12.288 8.616,12.672 C9.144,12.864 9.6,13.08 9.984,13.368 C10.368,13.656 10.656,13.944 10.848,14.28 C11.04,14.616 11.208,14.928 11.28,15.264 C11.376,15.576 11.424,15.936 11.424,16.296 C11.424,16.872 11.328,17.424 11.112,17.904 C10.896,18.408 10.608,18.816 10.248,19.176 C9.888,19.536 9.456,19.824 8.976,20.064 C8.496,20.304 7.968,20.496 7.416,20.616 C6.864,20.736 6.312,20.784 5.736,20.784 C3.984,20.784 2.592,20.352 1.56,19.464 C0.6,18.624 0.096,17.496 0.096,16.08 C0.096,16.008 0.096,15.96 0.096,15.888 L2.328,15.888 C2.328,15.936 2.328,15.96 2.328,15.984 C2.328,16.752 2.64,17.352 3.288,17.808 C3.96,18.288 4.776,18.528 5.736,18.528 C6.312,18.528 6.84,18.456 7.344,18.288 C7.848,18.144 8.256,17.88 8.616,17.52 C9,17.136 9.168,16.656 9.12,16.104 C9.072,15.408 8.688,14.76 8.088,14.4 C7.488,14.04 6.72,13.848 5.76,13.848 C4.008,13.848 2.616,13.368 1.56,12.384 C0.528,11.448 0,10.104 0,8.4 Z M2.352,8.496 C2.352,9.552 2.688,10.392 3.384,10.992 C4.08,11.592 4.944,11.88 5.976,11.88 C7.008,11.88 7.848,11.568 8.52,10.92 C9.192,10.296 9.528,9.48 9.528,8.496 C9.528,7.44 9.192,6.624 8.496,6 C7.8,5.376 6.96,5.088 5.952,5.088 C5.304,5.088 4.704,5.208 4.176,5.448 C3.648,5.688 3.192,6.072 2.832,6.6 C2.52,7.128 2.352,7.752 2.352,8.496 Z" id="XMLID_391_"></path>
            <path d="M12.792,8.808 C12.792,7.608 13.056,6.552 13.56,5.664 C14.088,4.776 14.76,4.104 15.624,3.672 C16.488,3.24 17.448,3.024 18.528,3.024 C19.32,3.024 20.064,3.192 20.76,3.552 C21.456,3.912 21.96,4.392 22.296,5.016 L22.368,3.264 L24.624,3.264 L24.624,14.4 L22.44,14.4 L22.32,12.504 C21.96,13.152 21.432,13.68 20.712,14.04 C19.992,14.4 18.528,14.64 18.528,14.64 C18.528,14.64 18.456,14.64 18.432,14.64 C16.8,14.64 15.456,14.136 14.4,13.104 C13.32,12.072 12.792,10.632 12.792,8.808 Z M15.168,8.76 C15.168,9.864 15.504,10.776 16.2,11.424 C16.896,12.096 17.736,12.432 18.744,12.432 C19.32,12.432 19.848,12.336 20.304,12.12 C20.76,11.904 21.144,11.64 21.432,11.28 C21.72,10.944 21.936,10.536 22.104,10.104 C22.248,9.672 22.344,9.216 22.344,8.76 C22.344,8.304 22.272,7.848 22.104,7.416 C21.96,6.984 21.72,6.6 21.432,6.24 C21.144,5.904 20.76,5.616 20.304,5.4 C19.848,5.184 19.32,5.088 18.744,5.088 C17.736,5.088 16.872,5.424 16.2,6.096 C15.504,6.792 15.168,7.68 15.168,8.76 Z" id="XMLID_394_"></path>
            <path d="M26.832,14.4 L26.832,3.264 L28.992,3.264 L29.136,4.752 C29.424,4.176 29.856,3.744 30.432,3.48 C31.008,3.216 31.608,3.072 32.232,3.072 C32.736,3.072 33.192,3.144 33.624,3.288 C34.056,3.432 34.464,3.672 34.824,4.008 C35.208,4.344 35.496,4.8 35.688,5.328 C36.48,3.84 37.752,3.096 39.48,3.096 C40.992,3.096 42.144,3.552 42.96,4.44 C43.776,5.352 44.16,6.6 44.16,8.232 L44.16,14.4 L41.928,14.4 L41.928,8.304 C41.928,7.44 41.712,6.744 41.28,6.192 C40.848,5.64 40.248,5.376 39.432,5.376 C38.616,5.376 37.968,5.664 37.464,6.24 C36.96,6.816 36.72,7.512 36.72,8.352 L36.72,14.4 L34.248,14.4 L34.248,8.352 C34.248,7.512 34.008,6.792 33.552,6.216 C33.096,5.64 32.472,5.352 31.68,5.352 C30.888,5.352 30.24,5.64 29.76,6.216 C29.28,6.792 29.04,7.488 29.04,8.352 L29.04,14.4 L26.832,14.4 Z" id="XMLID_397_"></path>
            <path d="M45.552,8.784 C45.552,7.104 46.08,5.736 47.16,4.656 C48.24,3.576 49.632,3.048 51.336,3.048 C53.208,3.048 54.648,3.624 55.656,4.752 C56.496,5.688 56.928,7.008 56.928,8.664 C56.928,9 56.904,9.336 56.88,9.696 L47.928,9.696 C48.024,10.536 48.408,11.208 49.056,11.712 C49.704,12.216 50.52,12.48 51.528,12.48 C52.128,12.48 52.728,12.384 53.328,12.168 C53.928,11.952 54.408,11.664 54.72,11.304 L56.208,12.768 C55.656,13.368 54.96,13.824 54.096,14.16 C53.232,14.472 52.368,14.64 51.456,14.64 C49.656,14.64 48.192,14.112 47.112,13.056 C46.08,11.976 45.552,10.56 45.552,8.784 Z M47.976,7.728 L54.672,7.728 C54.6,6.864 54.288,6.192 53.688,5.736 C53.112,5.28 52.344,5.04 51.384,5.04 C50.52,5.04 49.776,5.28 49.152,5.736 C48.552,6.192 48.168,6.864 47.976,7.728 Z" id="XMLID_399_"></path>
            <path d="M58.272,14.4 L58.272,3.264 L60.36,3.264 L60.504,4.728 C60.864,4.08 61.32,3.624 61.848,3.384 C62.376,3.144 62.976,3.024 63.648,3.024 C64.152,3.024 64.632,3.12 65.112,3.288 C65.592,3.456 65.976,3.696 66.288,3.984 L65.28,6 C64.752,5.544 64.128,5.328 63.408,5.328 C62.592,5.328 61.896,5.592 61.344,6.12 C60.792,6.648 60.504,7.392 60.504,8.376 L60.504,14.4 L58.272,14.4 Z" id="XMLID_402_"></path>
            <path d="M66.408,12.672 L67.608,11.04 C68.088,11.568 68.688,11.976 69.36,12.24 C70.056,12.504 70.752,12.648 71.472,12.672 C72.096,12.672 72.648,12.552 73.104,12.312 C73.584,12.072 73.824,11.688 73.824,11.208 C73.824,10.752 73.608,10.392 73.2,10.176 C72.768,9.936 72.144,9.792 71.28,9.72 C68.28,9.432 66.792,8.328 66.768,6.408 C66.768,5.832 66.912,5.304 67.2,4.872 C67.488,4.416 67.848,4.08 68.304,3.816 C68.76,3.576 69.264,3.384 69.768,3.24 C70.296,3.12 70.824,3.048 71.352,3.048 C72.24,3.048 73.008,3.168 73.68,3.384 C74.352,3.6 75,3.984 75.576,4.512 L74.28,6.024 C73.872,5.64 73.416,5.376 72.96,5.232 C72.504,5.088 71.976,4.992 71.376,4.992 C71.328,4.992 71.304,4.992 71.256,4.992 C70.608,4.992 70.08,5.112 69.672,5.328 C69.24,5.568 69.048,5.904 69.024,6.336 C69.024,6.768 69.24,7.104 69.648,7.32 C70.056,7.536 70.656,7.68 71.4,7.752 C71.736,7.776 72.024,7.824 72.288,7.848 C72.552,7.896 72.864,7.944 73.2,8.016 C73.536,8.088 73.848,8.184 74.088,8.28 C74.352,8.376 74.592,8.52 74.856,8.712 C75.12,8.88 75.336,9.096 75.504,9.312 C75.672,9.528 75.816,9.816 75.912,10.128 C76.008,10.464 76.056,10.8 76.056,11.208 C76.032,12.24 75.6,13.104 74.76,13.728 C73.92,14.376 72.768,14.688 71.376,14.688 C70.368,14.688 69.456,14.544 68.616,14.232 C67.824,13.968 67.08,13.44 66.408,12.672 Z" id="XMLID_404_"></path>
            <path d="M76.848,8.784 C76.848,7.848 76.992,7.032 77.304,6.288 C77.616,5.544 78.024,4.944 78.552,4.464 C79.08,3.984 79.704,3.624 80.4,3.384 C81.096,3.144 81.84,3 82.656,3 C84.192,3 85.536,3.552 86.64,4.632 L85.176,6.192 C84.48,5.52 83.664,5.208 82.68,5.208 C81.672,5.208 80.832,5.544 80.16,6.192 C79.488,6.864 79.152,7.728 79.152,8.808 C79.152,9.936 79.488,10.8 80.16,11.424 C80.832,12.048 81.672,12.36 82.656,12.36 C83.736,12.36 84.624,12.024 85.272,11.328 L86.832,12.864 C85.656,14.016 84.264,14.592 82.656,14.592 C81.576,14.592 80.616,14.376 79.752,13.944 C78.888,13.512 78.192,12.864 77.664,11.952 C77.112,11.064 76.848,10.008 76.848,8.784 Z" id="XMLID_406_"></path>
            <path d="M87.312,8.784 C87.312,7.152 87.84,5.784 88.896,4.68 C89.952,3.6 91.32,3.048 93,3.048 C94.104,3.048 95.088,3.312 95.952,3.816 C96.816,4.32 97.488,5.016 97.968,5.88 C98.448,6.744 98.688,7.728 98.688,8.784 C98.688,10.44 98.16,11.808 97.128,12.888 C96.072,13.968 94.704,14.52 93,14.52 C91.296,14.52 89.928,13.992 88.896,12.912 C87.84,11.808 87.312,10.44 87.312,8.784 Z M89.616,8.784 C89.616,9.816 89.928,10.656 90.528,11.352 C91.128,12.048 91.968,12.384 92.976,12.384 C94.008,12.384 94.824,12.048 95.448,11.352 C96.072,10.656 96.36,9.816 96.36,8.784 C96.36,7.776 96.048,6.936 95.4,6.216 C94.752,5.496 93.96,5.16 92.976,5.16 C91.968,5.16 91.152,5.52 90.528,6.216 C89.928,6.912 89.616,7.752 89.616,8.784 Z" id="XMLID_408_"></path>
            <path d="M100.104,9.24 L100.104,3.264 L102.336,3.264 L102.336,9.192 C102.336,10.152 102.6,10.92 103.104,11.496 C103.608,12.072 104.328,12.36 105.264,12.36 C106.152,12.36 106.872,12.048 107.424,11.4 C107.976,10.752 108.264,9.96 108.264,9.024 L108.264,3.264 L110.736,3.264 L110.736,14.4 L108.648,14.4 L108.528,12.768 C107.496,13.944 106.248,14.544 104.736,14.544 C103.368,14.544 102.24,14.064 101.376,13.128 C100.536,12.192 100.104,10.896 100.104,9.24 Z" id="XMLID_411_"></path>
            <path d="M112.008,5.232 L112.008,3.24 L114.24,3.24 L114.24,0.312 L116.472,0.072 L116.472,3.264 L119.688,3.264 L119.688,5.256 L116.472,5.256 L116.472,10.512 C116.472,11.712 116.976,12.336 118.008,12.336 C118.416,12.336 118.872,12.216 119.376,11.952 L120,13.92 C119.28,14.256 118.56,14.424 117.864,14.424 C117.792,14.424 117.744,14.424 117.696,14.424 C116.616,14.424 115.776,14.112 115.2,13.488 C114.576,12.816 114.24,11.832 114.24,10.536 L114.24,5.232 L112.008,5.232 Z" id="XMLID_413_"></path>
        </g>
    </g>
</svg>