<?xml version="1.0" encoding="UTF-8"?>
<svg width="14px" height="3px" viewBox="0 0 14 3" version="1.1" xmlns="http://www.w3.org/2000/svg" xmlns:xlink="http://www.w3.org/1999/xlink">
    <!-- Generator: Sketch 51.3 (57544) - http://www.bohemiancoding.com/sketch -->
    <title>more-alt</title>
    <desc>Created with Sketch.</desc>
    <defs></defs>
    <g id="Gamer-Details---Medium-Desktop" stroke="none" stroke-width="1" fill="none" fill-rule="evenodd">
        <g id="Gamer-Details---Summary---Medium-Desktop-Copy-4" transform="translate(-948.000000, -577.000000)" fill="#999999" fill-rule="nonzero">
            <g id="Group-6" transform="translate(354.000000, 572.000000)">
                <g id="more-alt" transform="translate(594.000000, 5.000000)">
                    <path d="M3.26885601,1.5 C3.26885601,2.328 2.53663226,3 1.634428,3 C0.732223746,3 0,2.328 0,1.5 C0,0.672 0.732223746,0 1.634428,0 C2.53663226,0 3.26885601,0.672 3.26885601,1.5 Z M6.94631902,0 C6.04411476,0 5.31189101,0.672 5.31189101,1.5 C5.31189101,2.328 6.04411476,3 6.94631902,3 C7.84852328,3 8.58074702,2.328 8.58074702,1.5 C8.58074702,0.672 7.84852328,0 6.94631902,0 Z M12.25821,0 C11.3560058,0 10.623782,0.672 10.623782,1.5 C10.623782,2.328 11.3560058,3 12.25821,3 C13.1604143,3 13.892638,2.328 13.892638,1.5 C13.892638,0.672 13.1604143,0 12.25821,0 Z" id="Shape"></path>
                </g>
            </g>
        </g>
    </g>
</svg>