<?xml version="1.0" encoding="UTF-8"?>
<svg width="62px" height="100px" viewBox="0 0 62 100" version="1.1" xmlns="http://www.w3.org/2000/svg" xmlns:xlink="http://www.w3.org/1999/xlink">
    <!-- Generator: Sketch 52.5 (67469) - http://www.bohemiancoding.com/sketch -->
    <title>Shape</title>
    <desc>Created with Sketch.</desc>
    <g id="Gamer-Details---Medium-Desktop" stroke="none" stroke-width="1" fill="none" fill-rule="evenodd">
        <g id="Gamer-Details---Profile---Leagues---Zero-state" transform="translate(-468.000000, -415.000000)" fill="#A5A2A2" fill-rule="nonzero">
            <g id="medall" transform="translate(468.000000, 415.000000)">
                <path d="M30.7377049,0 C13.7889344,0 0,13.5939394 0,30.3030303 C0,38.6363636 3.41188525,46.4181818 9.60245902,52.2181818 C10.125,52.7151515 10.7090164,53.1515152 11.2991803,53.5878788 L11.932377,54.0606061 C13.0327869,54.9151515 14.2008197,55.6181818 15.3688525,56.3090909 L15.3688525,100 L30.6086066,88.4787879 L46.1065574,100 L46.1065574,56.3090909 C47.2745902,55.6181818 48.4487705,54.9090909 49.5491803,54.0545455 L50.182377,53.5878788 C50.772541,53.1515152 51.3504098,52.7151515 51.8790984,52.2181818 C58.0635246,46.4181818 61.4754098,38.6363636 61.4754098,30.3030303 C61.4754098,13.5939394 47.6864754,0 30.7377049,0 Z M39.9590164,87.8363636 L30.5778689,80.8606061 L21.5163934,87.7151515 L21.5163934,62.1090909 C24.4795082,63.1212121 27.5778689,63.6363636 30.7377049,63.6363636 C33.897541,63.6363636 36.9959016,63.1212121 39.9590164,62.1090909 L39.9590164,87.8363636 Z M47.6372951,47.830303 C47.2868852,48.1636364 46.8934426,48.4424242 46.5,48.7212121 L45.7438525,49.2909091 C36.8606557,56.169697 24.6086066,56.1636364 15.7377049,49.2969697 L14.9754098,48.7212121 C14.5819672,48.4363636 14.1885246,48.1575758 13.8381148,47.830303 C8.87704918,43.1818182 6.14754098,36.9636364 6.14754098,30.3030303 C6.14754098,16.9333333 17.1762295,6.06060606 30.7377049,6.06060606 C44.2991803,6.06060606 55.3278689,16.9333333 55.3278689,30.3030303 C55.3278689,36.9636364 52.5983607,43.1818182 47.6372951,47.830303 Z M45.7991803,21.2969697 L46.9303279,27.2484848 L35.7233607,29.3151515 L42.7684426,41.0545455 L37.4754098,44.1454545 L30.7930328,33.0181818 L24.0922131,44.1393939 L18.8114754,41.0484848 L25.8934426,29.2909091 L14.9754098,27.2484848 L16.1188525,21.2969697 L27.6639344,23.4484848 L27.6639344,12.1212121 L33.8114754,12.1212121 L33.8114754,23.5030303 L45.7991803,21.2969697 Z" id="Shape"></path>
            </g>
        </g>
    </g>
</svg>