<?xml version="1.0" encoding="UTF-8"?>
<svg width="10px" height="10px" viewBox="0 0 10 10" version="1.1" xmlns="http://www.w3.org/2000/svg" xmlns:xlink="http://www.w3.org/1999/xlink">
    <!-- Generator: Sketch 51.3 (57544) - http://www.bohemiancoding.com/sketch -->
    <title>pencil</title>
    <desc>Created with Sketch.</desc>
    <defs></defs>
    <g id="Gamer-Details---Medium-Desktop" stroke="none" stroke-width="1" fill="none" fill-rule="evenodd">
        <g id="Gamer-Details---Summary---Medium-Desktop-Copy-4" transform="translate(-750.000000, -193.000000)" fill="#FFFFFF" fill-rule="nonzero">
            <g id="REVIEW" transform="translate(750.000000, 191.000000)">
                <g id="pencil" transform="translate(0.000000, 2.000000)">
                    <path d="M9.686,1.238 L8.75066667,0.302 C8.374,-0.0753333333 7.714,-0.0753333333 7.336,0.302 L1.298,6.34066667 L0.15,9.866 L3.64866667,8.68933333 L9.68533333,2.652 C10.076,2.26266667 10.076,1.628 9.686,1.238 Z M1.396,8.196 L1.826,6.87666667 L3.11533333,8.16666667 L1.80666667,8.60666667 L1.396,8.196 Z M2.23666667,6.34533333 L5.89866667,2.68333333 L7.306,4.09 L3.64333333,7.75266667 L2.23666667,6.34533333 Z M6.37,2.21133333 L6.856,1.72533333 L8.26333333,3.132 L7.77733333,3.618 L6.37,2.21133333 Z M9.21466667,2.18066667 L8.73466667,2.66066667 L7.32733333,1.254 L7.80733333,0.773333333 C7.93333333,0.647333333 8.15266667,0.647333333 8.27866667,0.773333333 L9.214,1.70933333 C9.34466667,1.84 9.34466667,2.05066667 9.21466667,2.18066667 Z" id="Shape"></path>
                </g>
            </g>
        </g>
    </g>
</svg>