<?xml version="1.0" encoding="UTF-8"?>
<svg width="40px" height="40px" viewBox="0 0 40 40" version="1.1" xmlns="http://www.w3.org/2000/svg" xmlns:xlink="http://www.w3.org/1999/xlink">
    <!-- Generator: Sketch 51.3 (57544) - http://www.bohemiancoding.com/sketch -->
    <title>Reviewer Image</title>
    <desc>Created with Sketch.</desc>
    <defs></defs>
    <g id="Gamer-Details---Medium-Desktop" stroke="none" stroke-width="1" fill="none" fill-rule="evenodd">
        <g id="Gamer-Details---Summary---Medium-Desktop-Copy-4" transform="translate(-354.000000, -572.000000)">
            <g id="Group-6" transform="translate(354.000000, 572.000000)">
                <g id="Reviewer-Image">
                    <rect id="Rectangle-4" fill="#D8D8D8" x="0" y="0" width="39.6932515" height="40"></rect>
                    <path d="M18.3716279,20.9428571 L18.3716279,19.4 C18.3716279,19.2874994 18.3357984,19.1950896 18.2641384,19.1227679 C18.1924783,19.0504461 18.1009141,19.0142857 17.9894428,19.0142857 L15.6963324,19.0142857 L15.6963324,16.7 C15.6963324,16.5874994 15.6605029,16.4950896 15.5888428,16.4227679 C15.5171828,16.3504461 15.4256185,16.3142857 15.3141473,16.3142857 L13.785407,16.3142857 C13.6739358,16.3142857 13.5823716,16.3504461 13.5107115,16.4227679 C13.4390514,16.4950896 13.4032219,16.5874994 13.4032219,16.7 L13.4032219,19.0142857 L11.1101115,19.0142857 C10.9986403,19.0142857 10.907076,19.0504461 10.835416,19.1227679 C10.7637559,19.1950896 10.7279264,19.2874994 10.7279264,19.4 L10.7279264,20.9428571 C10.7279264,21.0553577 10.7637559,21.1477675 10.835416,21.2200893 C10.907076,21.2924111 10.9986403,21.3285714 11.1101115,21.3285714 L13.4032219,21.3285714 L13.4032219,23.6428571 C13.4032219,23.7553577 13.4390514,23.8477675 13.5107115,23.9200893 C13.5823716,23.9924111 13.6739358,24.0285714 13.785407,24.0285714 L15.3141473,24.0285714 C15.4256185,24.0285714 15.5171828,23.9924111 15.5888428,23.9200893 C15.6605029,23.8477675 15.6963324,23.7553577 15.6963324,23.6428571 L15.6963324,21.3285714 L17.9894428,21.3285714 C18.1009141,21.3285714 18.1924783,21.2924111 18.2641384,21.2200893 C18.3357984,21.1477675 18.3716279,21.0553577 18.3716279,20.9428571 Z M25.2509593,21.7142857 C25.2509593,21.2883907 25.1016697,20.9247783 24.8030862,20.6234375 C24.5045026,20.3220967 24.1442171,20.1714286 23.722219,20.1714286 C23.3002209,20.1714286 22.9399354,20.3220967 22.6413518,20.6234375 C22.3427682,20.9247783 22.1934787,21.2883907 22.1934787,21.7142857 C22.1934787,22.1401807 22.3427682,22.5037931 22.6413518,22.8051339 C22.9399354,23.1064747 23.3002209,23.2571429 23.722219,23.2571429 C24.1442171,23.2571429 24.5045026,23.1064747 24.8030862,22.8051339 C25.1016697,22.5037931 25.2509593,22.1401807 25.2509593,21.7142857 Z M28.3084399,18.6285714 C28.3084399,18.2026764 28.1591503,17.839064 27.8605668,17.5377232 C27.5619832,17.2363824 27.2016977,17.0857143 26.7796996,17.0857143 C26.3577015,17.0857143 25.997416,17.2363824 25.6988324,17.5377232 C25.4002488,17.839064 25.2509593,18.2026764 25.2509593,18.6285714 C25.2509593,19.0544664 25.4002488,19.4180789 25.6988324,19.7194196 C25.997416,20.0207604 26.3577015,20.1714286 26.7796996,20.1714286 C27.2016977,20.1714286 27.5619832,20.0207604 27.8605668,19.7194196 C28.1591503,19.4180789 28.3084399,19.0544664 28.3084399,18.6285714 Z M31.3659205,20.1714286 C31.3659205,21.8750085 30.7687623,23.3294583 29.574428,24.5348214 C28.3800936,25.7401846 26.9389518,26.3428571 25.2509593,26.3428571 C23.7222113,26.3428571 22.3766148,25.8285766 21.2141294,24.8 L18.586607,24.8 C17.4241216,25.8285766 16.0785251,26.3428571 14.5497772,26.3428571 C12.8617846,26.3428571 11.4206428,25.7401846 10.2263085,24.5348214 C9.03197416,23.3294583 8.43481595,21.8750085 8.43481595,20.1714286 C8.43481595,18.4678486 9.03197416,17.0133989 10.2263085,15.8080357 C11.4206428,14.6026725 12.8617846,14 14.5497772,14 L25.2509593,14 C26.9389518,14 28.3800936,14.6026725 29.574428,15.8080357 C30.7687623,17.0133989 31.3659205,18.4678486 31.3659205,20.1714286 Z" id="" fill="#686868"></path>
                </g>
            </g>
        </g>
    </g>
</svg>