<?xml version="1.0" encoding="UTF-8"?>
<svg width="30px" height="30px" viewBox="0 0 30 30" version="1.1" xmlns="http://www.w3.org/2000/svg" xmlns:xlink="http://www.w3.org/1999/xlink">
    <!-- Generator: Sketch 53 (72520) - https://sketchapp.com -->
    <title>Reviewer Image</title>
    <desc>Created with Sketch.</desc>
    <defs>
        <circle id="path-1" cx="15" cy="15" r="15"></circle>
    </defs>
    <g id="Symbols" stroke="none" stroke-width="1" fill="none" fill-rule="evenodd">
        <g id="Review---Desktop">
            <g id="Reviewer-Image">
                <mask id="mask-2" fill="white">
                    <use xlink:href="#path-1"></use>
                </mask>
                <g id="Mask" fill-rule="nonzero"></g>
                <g mask="url(#mask-2)" fill-rule="nonzero">
                    <rect id="Rectangle-4" fill="#D8D8D8" x="0" y="0" width="29.7699394" height="30"></rect>
                    <path d="M13.7787209,15.7071433 L13.7787209,14.5500002 C13.7787209,14.4656248 13.7518489,14.3963175 13.6981036,14.342076 C13.6443586,14.2878347 13.5756854,14.2607144 13.492082,14.2607144 L11.7722492,14.2607144 L11.7722492,12.5250001 C11.7722492,12.4406246 11.7453772,12.3713173 11.6916322,12.3170759 C11.6378873,12.2628346 11.5692141,12.2357143 11.4856107,12.2357143 L10.3390554,12.2357143 C10.255452,12.2357143 10.1867788,12.2628346 10.1330337,12.3170759 C10.0792887,12.3713173 10.0524165,12.4406246 10.0524165,12.5250001 L10.0524165,14.2607144 L8.33258384,14.2607144 C8.24898043,14.2607144 8.18030725,14.2878347 8.12656221,14.342076 C8.07281717,14.3963175 8.04594505,14.4656248 8.04594505,14.5500002 L8.04594505,15.7071433 C8.04594505,15.7915187 8.07281717,15.8608261 8.12656221,15.9150674 C8.18030725,15.9693086 8.24898043,15.9964288 8.33258384,15.9964288 L10.0524165,15.9964288 L10.0524165,17.7321433 C10.0524165,17.8165187 10.0792887,17.885826 10.1330337,17.9400673 C10.1867788,17.9943089 10.255452,18.0214291 10.3390554,18.0214291 L11.4856107,18.0214291 C11.5692141,18.0214291 11.6378873,17.9943089 11.6916322,17.9400673 C11.7453772,17.885826 11.7722492,17.8165187 11.7722492,17.7321433 L11.7722492,15.9964288 L13.492082,15.9964288 C13.5756854,15.9964288 13.6443586,15.9693086 13.6981036,15.9150674 C13.7518489,15.8608261 13.7787209,15.7915187 13.7787209,15.7071433 Z M18.9382195,16.2857144 C18.9382195,15.9662931 18.8262524,15.6935838 18.6023148,15.4675782 C18.3783772,15.2415726 18.1081631,15.1285715 17.7916646,15.1285715 C17.4751661,15.1285715 17.2049521,15.2415726 16.9810144,15.4675782 C16.7570768,15.6935838 16.6451097,15.9662931 16.6451097,16.2857144 C16.6451097,16.6051356 16.7570768,16.877845 16.9810144,17.1038506 C17.2049521,17.3298561 17.4751661,17.4428573 17.7916646,17.4428573 C18.1081631,17.4428573 18.3783772,17.3298561 18.6023148,17.1038506 C18.8262524,16.877845 18.9382195,16.6051356 18.9382195,16.2857144 Z M21.2313294,13.9714286 C21.2313294,13.6520074 21.1193623,13.3792981 20.8954247,13.1532925 C20.6714871,12.9272869 20.401273,12.8142858 20.0847745,12.8142858 C19.768276,12.8142858 19.498062,12.9272869 19.2741243,13.1532925 C19.0501867,13.3792981 18.9382195,13.6520074 18.9382195,13.9714286 C18.9382195,14.2908499 19.0501867,14.5635592 19.2741243,14.7895648 C19.498062,15.0155704 19.768276,15.1285715 20.0847745,15.1285715 C20.401273,15.1285715 20.6714871,15.0155704 20.8954247,14.7895648 C21.1193623,14.5635592 21.2313294,14.2908499 21.2313294,13.9714286 Z M23.5244408,15.1285715 C23.5244408,16.4062565 23.0765724,17.4970939 22.1808214,18.4011162 C21.2850703,19.3051385 20.2042138,19.757143 18.9382201,19.757143 C17.7916588,19.757143 16.7824619,19.3714324 15.9105978,18.6000001 L13.9399558,18.6000001 C13.0680916,19.3714324 12.0588942,19.757143 10.9123334,19.757143 C9.64633872,19.757143 8.56548249,19.3051385 7.66973168,18.4011162 C6.77398094,17.4970939 6.32611227,16.4062565 6.32611227,15.1285715 C6.32611227,13.8508865 6.77398094,12.7600492 7.66973168,11.8560268 C8.56548249,10.9520044 9.64633872,10.5 10.9123334,10.5 L18.9382201,10.5 C20.2042138,10.5 21.2850703,10.9520044 22.1808214,11.8560268 C23.0765724,12.7600492 23.5244408,13.8508865 23.5244408,15.1285715 Z" id="" fill="#686868"></path>
                </g>
            </g>
        </g>
    </g>
</svg>