<?xml version="1.0" encoding="UTF-8"?>
<svg width="17px" height="17px" viewBox="0 0 17 17" version="1.1" xmlns="http://www.w3.org/2000/svg" xmlns:xlink="http://www.w3.org/1999/xlink">
    <!-- Generator: Sketch 53.2 (72643) - https://sketchapp.com -->
    <title>Shape Copy 2</title>
    <desc>Created with Sketch.</desc>
    <g id="Beta---Nav-Update" stroke="none" stroke-width="1" fill="none" fill-rule="evenodd">
        <g id="Group-2" transform="translate(-249.000000, -7.000000)" fill="#FFFFFF" fill-rule="nonzero">
            <path d="M265.999992,23.2751144 L260.703621,17.9787397 C261.701874,16.8146231 262.31004,15.3054687 262.31004,13.6550227 C262.31004,9.98554565 259.324496,7 255.655021,7 C253.877618,7 252.205673,7.69212241 250.947362,8.94838598 C249.691099,10.2056734 248.998977,11.8776199 249.000001,13.6550227 C249.000001,17.3245 251.985545,20.3100454 255.655021,20.3100454 C257.305465,20.3100454 258.815643,19.7018794 259.979759,18.7036253 L265.276131,24 L265.999992,23.2751144 Z M255.655022,19.286196 C252.550711,19.286196 250.023851,16.7603589 250.023851,13.6550229 C250.022827,12.149964 250.608469,10.7360275 251.672248,9.6732715 C252.735004,8.60949174 254.149963,8.02384973 255.655022,8.02384973 C258.759333,8.02384973 261.286193,10.5496868 261.286193,13.6550229 C261.286193,16.7593352 258.759333,19.286196 255.655022,19.286196 Z" id="Shape-Copy-2"></path>
        </g>
    </g>
</svg>