<?xml version="1.0" encoding="UTF-8"?>
<svg width="10px" height="10px" viewBox="0 0 10 10" version="1.1" xmlns="http://www.w3.org/2000/svg" xmlns:xlink="http://www.w3.org/1999/xlink">
    <!-- Generator: Sketch 52.5 (67469) - http://www.bohemiancoding.com/sketch -->
    <title>Path</title>
    <desc>Created with Sketch.</desc>
    <g id="Symbols" stroke="none" stroke-width="1" fill="none" fill-rule="evenodd">
        <g id="Profile-Actions" transform="translate(-109.000000, -8.000000)" fill="#FFFFFF" fill-rule="nonzero">
            <path d="M119,15.916875 C119,17.0687505 118.06875,17.9993753 116.916875,17.9993753 C115.764375,17.9993753 114.83375,17.0687505 114.83375,15.916875 C114.83375,15.8443753 114.84,15.766875 114.84625,15.6956251 L112.5025,14.5231254 C112.131875,14.8681253 111.63,15.0831255 111.083125,15.0831255 C109.930625,15.0831255 109,14.1525 109,12.9993751 C109,11.8475002 109.930625,10.9168751 111.083125,10.9168751 C111.63,10.9168751 112.13125,11.13125 112.5025,11.47625 L114.84625,10.3050001 C114.84,10.2325 114.83375,10.1550001 114.83375,10.0837501 C114.83375,8.93062503 115.764375,8 116.916875,8 C118.06875,8 119,8.93062503 119,10.0837501 C119,11.2362502 118.06875,12.1668751 116.916875,12.1668751 C116.37,12.1668751 115.86875,11.9518752 115.4975,11.6068752 L113.15375,12.77875 C113.16,12.8506252 113.166875,12.9287501 113.166875,13 C113.166875,13.0718751 113.16,13.15 113.15375,13.2212499 L115.4975,14.3943755 C115.86875,14.0487503 116.370625,13.8337501 116.916875,13.8337501 C118.06875,13.8325003 119,14.7631252 119,15.916875 Z" id="Shape"></path>
        </g>
    </g>
</svg>