<?xml version="1.0" encoding="UTF-8"?>
<svg width="56px" height="11px" viewBox="0 0 56 11" version="1.1" xmlns="http://www.w3.org/2000/svg" xmlns:xlink="http://www.w3.org/1999/xlink">
    <!-- Generator: Sketch 51.3 (57544) - http://www.bohemiancoding.com/sketch -->
    <title>SHARE</title>
    <desc>Created with Sketch.</desc>
    <defs></defs>
    <g id="Gamer-Details---Medium-Desktop" stroke="none" stroke-width="1" fill="none" fill-rule="evenodd">
        <g id="Gamer-Details---Summary---Medium-Desktop-Copy-4" transform="translate(-922.000000, -193.000000)" fill="#FFFFFF">
            <g id="SHARE" transform="translate(922.000000, 191.000000)">
                <text font-family=".AppleSystemUIFont" font-size="12" font-weight="normal" letter-spacing="0.39375">
                    <tspan x="15" y="12">SHARE</tspan>
                </text>
                <path d="M10,9.916875 C10,11.06875 9.06875,11.999375 7.916875,11.999375 C6.764375,11.999375 5.83375,11.06875 5.83375,9.916875 C5.83375,9.844375 5.84,9.766875 5.84625,9.695625 L3.5025,8.523125 C3.131875,8.868125 2.63,9.083125 2.083125,9.083125 C0.930625,9.083125 0,8.1525 0,6.999375 C0,5.8475 0.930625,4.916875 2.083125,4.916875 C2.63,4.916875 3.13125,5.13125 3.5025,5.47625 L5.84625,4.305 C5.84,4.2325 5.83375,4.155 5.83375,4.08375 C5.83375,2.930625 6.764375,2 7.916875,2 C9.06875,2 10,2.930625 10,4.08375 C10,5.23625 9.06875,6.166875 7.916875,6.166875 C7.37,6.166875 6.86875,5.951875 6.4975,5.606875 L4.15375,6.77875 C4.16,6.850625 4.166875,6.92875 4.166875,7 C4.166875,7.071875 4.16,7.15 4.15375,7.22125 L6.4975,8.394375 C6.86875,8.04875 7.370625,7.83375 7.916875,7.83375 C9.06875,7.8325 10,8.763125 10,9.916875 Z" id="Shape" fill-rule="nonzero"></path>
            </g>
        </g>
    </g>
</svg>