<?xml version="1.0" encoding="UTF-8"?>
<svg width="10px" height="10px" viewBox="0 0 10 10" version="1.1" xmlns="http://www.w3.org/2000/svg" xmlns:xlink="http://www.w3.org/1999/xlink">
    <!-- Generator: Sketch 53 (72520) - https://sketchapp.com -->
    <title>thumb-up copy 3</title>
    <desc>Created with Sketch.</desc>
    <g id="Symbols" stroke="none" stroke-width="1" fill="none" fill-rule="evenodd">
        <g id="Group-12" transform="translate(-295.000000, -20.000000)" fill="#FFFFFF" fill-rule="nonzero">
            <g id="Group-8">
                <g transform="translate(277.000000, 20.000000)">
                    <g id="thumb-up-copy-3" transform="translate(18.000000, 0.000000)">
                        <path d="M9.54857143,5.15 C9.60785714,5.28533333 9.64285714,5.46066667 9.64285714,5.688 C9.64285714,6.03866667 9.47142857,6.33533333 9.19928571,6.51 C9.29785714,6.666 9.345,6.844 9.345,7.022 C9.345,7.39666667 9.12142857,7.716 8.78428571,7.88066667 C8.84142857,8.006 8.875,8.16066667 8.87642857,8.35066667 C8.87785714,8.65 8.78428571,8.89066667 8.59714286,9.066 C8.4,9.25066667 8.12071429,9.34466667 7.76785714,9.34466667 L3.75,9.34466667 C3.21142857,9.34466667 2.84071429,9.07533333 2.56928571,8.878 C2.41285714,8.76466667 2.265,8.65666667 2.16214286,8.65666667 L0.660714286,8.65666667 C0.463571429,8.65666667 0.303571429,8.50733333 0.303571429,8.32333333 C0.303571429,8.13933333 0.463571429,7.99 0.660714286,7.99 L2.16214286,7.99 C2.51,7.99 2.77428571,8.182 3.00785714,8.35133333 C3.23857143,8.51866667 3.45642857,8.67733333 3.75,8.67733333 L7.76785714,8.67733333 C7.91928571,8.67733333 8.03428571,8.64866667 8.09071429,8.59533333 C8.13928571,8.55 8.16357143,8.46866667 8.16285714,8.354 C8.16071429,8.06266667 8.09714286,8 7.42928571,8 L7.35357143,8 C7.15642857,8 6.99642857,7.85066667 6.99642857,7.66666667 C6.99642857,7.48266667 7.15642857,7.33333333 7.35357143,7.33333333 L8.25214286,7.33333333 C8.47142857,7.33333333 8.63071429,7.202 8.63071429,7.02133333 C8.63071429,6.72133333 8.31,6.67666667 8.11857143,6.67666667 L7.58285714,6.67666667 C7.38571429,6.67666667 7.22571429,6.52733333 7.22571429,6.34333333 C7.22571429,6.15933333 7.38571429,6.01 7.58285714,6.01 L8.60928571,6.01 C8.84571429,6.01 8.92928571,5.84333333 8.92928571,5.68733333 C8.92928571,5.35933333 8.92928571,5.35933333 8.61571429,5.35066667 C8.57928571,5.35 8.54142857,5.34733333 8.50428571,5.346 L7.73571429,5.346 C7.53857143,5.346 7.37857143,5.19666667 7.37857143,5.01266667 C7.37857143,4.82866667 7.53857143,4.67933333 7.73571429,4.67933333 L8.43714286,4.67933333 C8.44214286,4.67933333 8.44642857,4.67666667 8.45142857,4.67666667 L8.90214286,4.67666667 C9.11285714,4.67666667 9.285,4.52533333 9.285,4.34 C9.285,4.15466667 9.11357143,4.00333333 8.90214286,4.00333333 L5.72142857,4.00333333 C5.615,4.00333333 5.51428571,3.95933333 5.44642857,3.88266667 C5.37857143,3.806 5.35071429,3.70533333 5.37071429,3.608 L5.74214286,1.78533333 C5.78642857,1.60333333 5.91214286,1.08733333 5.76571429,0.858666667 C5.72785714,0.799333333 5.63571429,0.736 5.52285714,0.736 C5.52285714,0.736 5.52285714,0.736 5.52285714,0.736 C5.38285714,0.736 5.23928571,0.840666667 5.11857143,1.02933333 L2.80357143,4.51866667 C2.73857143,4.61666667 2.62357143,4.67666667 2.5,4.67666667 L0.665,4.67666667 C0.467857143,4.67666667 0.307857143,4.52733333 0.307857143,4.34333333 C0.307857143,4.15933333 0.467857143,4.01 0.665,4.01 L2.30142857,4.01 L4.50714286,0.683333333 C4.84714286,0.15 5.28928571,0.0693333333 5.52142857,0.0693333333 C5.52142857,0.0693333333 5.52142857,0.0693333333 5.52214286,0.0693333333 C5.86857143,0.0693333333 6.20428571,0.245333333 6.37785714,0.516666667 C6.63785714,0.922666667 6.54785714,1.48 6.44,1.92066667 L6.15214286,3.33666667 L8.90142857,3.33666667 C9.50642857,3.33666667 9.99857143,3.78666667 9.99857143,4.34 C9.99928571,4.672 9.82142857,4.96733333 9.54857143,5.15 L9.54857143,5.15 Z" id="Shape"></path>
                    </g>
                </g>
            </g>
        </g>
    </g>
</svg>