<?xml version="1.0" encoding="UTF-8"?>
<svg width="10px" height="10px" viewBox="0 0 10 10" version="1.1" xmlns="http://www.w3.org/2000/svg" xmlns:xlink="http://www.w3.org/1999/xlink">
    <!-- Generator: Sketch 51.3 (57544) - http://www.bohemiancoding.com/sketch -->
    <title>thumb-down</title>
    <desc>Created with Sketch.</desc>
    <defs></defs>
    <g id="Desktop---Medium" stroke="none" stroke-width="1" fill="none" fill-rule="evenodd">
        <g id="Home----Medium-Desktop" transform="translate(-301.000000, -809.000000)" fill="#666666" fill-rule="nonzero">
            <g id="Group" transform="translate(61.000000, 764.000000)">
                <g id="thumb-down" transform="translate(240.000000, 45.000000)">
                    <path d="M9.69142857,5.35785714 C9.69142857,5.555 9.53142857,5.715 9.33428571,5.715 L7.69785714,5.715 L5.49214286,9.27928571 C5.15142857,9.85071429 4.71,9.93714286 4.47785714,9.93714286 C4.47785714,9.93714286 4.47714286,9.93714286 4.47714286,9.93714286 C4.13071429,9.93714286 3.795,9.74857143 3.62071429,9.45785714 C3.36071429,9.02214286 3.45071429,8.425 3.55857143,7.95357143 L3.84642857,6.43642857 L1.09714286,6.43642857 C0.492142857,6.43642857 0.000714285714,5.95428571 0.000714285714,5.36142857 C0.000714285714,4.97 0.215,4.62642857 0.535,4.43857143 C0.425714286,4.28928571 0.356428571,4.11357143 0.356428571,3.91785714 C0.356428571,3.54214286 0.527857143,3.22428571 0.8,3.03714286 C0.701428571,2.86928571 0.654285714,2.67857143 0.654285714,2.48785714 C0.654285714,2.07714286 0.888571429,1.72928571 1.23785714,1.55571429 C1.14285714,1.37285714 1.12214286,1.18714286 1.12214286,1.06285714 C1.12214286,0.397142857 1.53714286,8.8817842e-16 2.23142857,8.8817842e-16 L6.24928571,8.8817842e-16 C6.78785714,8.8817842e-16 7.15928571,0.288571429 7.43,0.5 C7.58642857,0.621428571 7.73428571,0.737142857 7.83642857,0.737142857 L9.33857143,0.737142857 C9.53571429,0.737142857 9.69571429,0.897142857 9.69571429,1.09428571 C9.69571429,1.29142857 9.53571429,1.45142857 9.33857143,1.45142857 L7.83642857,1.45142857 C7.48857143,1.45142857 7.22428571,1.24571429 6.99071429,1.06428571 C6.76071429,0.883571429 6.54285714,0.714285714 6.24928571,0.714285714 L2.23142857,0.714285714 C1.89785714,0.714285714 1.83642857,0.832142857 1.83642857,1.06285714 C1.83642857,1.17571429 1.83642857,1.43928571 2.57,1.43928571 L2.645,1.43928571 C2.84214286,1.43928571 3.00214286,1.59928571 3.00214286,1.79642857 C3.00214286,1.99357143 2.84214286,2.15357143 2.645,2.15357143 L1.74642857,2.15357143 C1.52714286,2.15357143 1.36857143,2.29428571 1.36857143,2.48785714 C1.36857143,2.80928571 1.68928571,2.85714286 1.88071429,2.85714286 L2.41642857,2.85714286 C2.61357143,2.85714286 2.77357143,3.01714286 2.77357143,3.21428571 C2.77357143,3.41142857 2.61357143,3.57142857 2.41642857,3.57142857 L1.39071429,3.57142857 C1.155,3.57142857 1.07071429,3.75 1.07071429,3.91714286 C1.07071429,4.03714286 1.33214286,4.24357143 1.57428571,4.28357143 L2.26428571,4.28357143 C2.46142857,4.28357143 2.62142857,4.44357143 2.62142857,4.64071429 C2.62142857,4.83785714 2.46142857,4.99785714 2.26428571,4.99785714 L1.56214286,4.99785714 C1.55714286,4.99785714 1.55285714,5.00071429 1.54785714,5.00071429 L1.09714286,5.00071429 C0.886428571,5.00071429 0.715,5.16285714 0.715,5.36142857 C0.715,5.56 0.886428571,5.72214286 1.09714286,5.72214286 L4.27785714,5.72214286 C4.38428571,5.72214286 4.485,5.76928571 4.55285714,5.85142857 C4.62071429,5.93357143 4.64857143,6.04142857 4.62857143,6.14571429 L4.25714286,8.09857143 C4.21285714,8.29357143 4.08714286,8.84571429 4.23357143,9.09142857 C4.27142857,9.15428571 4.36357143,9.22285714 4.47642857,9.22285714 C4.61642857,9.22285714 4.76,9.11071429 4.88071429,8.90857143 L7.19428571,5.17 C7.25928571,5.065 7.37428571,5.00071429 7.49785714,5.00071429 L9.33285714,5.00071429 C9.53214286,5.00071429 9.69142857,5.16071429 9.69142857,5.35785714 Z" id="Shape"></path>
                </g>
            </g>
        </g>
    </g>
</svg>