<?xml version="1.0" encoding="UTF-8"?>
<svg width="10px" height="9px" viewBox="0 0 10 9" version="1.1" xmlns="https://www.w3.org/2000/svg" xmlns:xlink="https://www.w3.org/1999/xlink">
    <!-- Generator: Sketch 51.3 (57544) - https://www.bohemiancoding.com/sketch -->
    <title>thumb-up</title>
    <desc>Created with Sketch.</desc>
    <defs></defs>
    <g id="Desktop---Medium" stroke="none" stroke-width="1" fill="none" fill-rule="evenodd">
        <g id="Home----Medium-Desktop" transform="translate(-301.000000, -796.000000)" fill="#666666" fill-rule="nonzero">
            <g id="Group" transform="translate(61.000000, 764.000000)">
                <g id="thumb-up" transform="translate(240.000000, 32.000000)">
                    <path d="M9.53584111,4.92984978 C9.59699191,5.06116582 9.63309299,5.23129447 9.63309299,5.45187954 C9.63309299,5.79213685 9.45627139,6.07999712 9.17556712,6.2494789 C9.27723953,6.40084813 9.32586547,6.57356429 9.32586547,6.74628046 C9.32586547,7.10982534 9.09526064,7.41967944 8.74751151,7.57945806 C8.80645204,7.70107094 8.8410796,7.85114641 8.84255312,8.03550636 C8.84402663,8.32595414 8.74751151,8.55947675 8.55448127,8.72960541 C8.35113644,8.90879034 8.0630646,9 7.69910682,9 L3.55485076,9 C2.99933626,9 2.61695956,8.73866168 2.33699204,8.54718608 C2.17564234,8.43721699 2.02313372,8.33242291 1.91704076,8.33242291 L0.368378317,8.33242291 C0.165033486,8.33242291 0,8.18752246 0,8.0089844 C0,7.83044635 0.165033486,7.68554589 0.368378317,7.68554589 L1.91704076,7.68554589 C2.27584124,7.68554589 2.5484412,7.87184647 2.78936062,8.03615324 C3.02733301,8.19851937 3.25204378,8.3524761 3.55485076,8.3524761 L7.69910682,8.3524761 C7.85529923,8.3524761 7.97391705,8.32466039 8.03212082,8.27291023 C8.08222027,8.22892259 8.10727,8.15000359 8.10653324,8.03874075 C8.10432297,7.75605549 8.03875163,7.69524905 7.34988418,7.69524905 L7.27178797,7.69524905 C7.06844314,7.69524905 6.90340966,7.55034859 6.90340966,7.37181054 C6.90340966,7.19327248 7.06844314,7.04837203 7.27178797,7.04837203 L8.19862782,7.04837203 C8.42481211,7.04837203 8.58910884,6.92093725 8.58910884,6.74563358 C8.58910884,6.45453892 8.25830511,6.41119816 8.06085433,6.41119816 L7.50828685,6.41119816 C7.30494202,6.41119816 7.13990854,6.26629771 7.13990854,6.08775965 C7.13990854,5.90922159 7.30494202,5.76432114 7.50828685,5.76432114 L8.56700614,5.76432114 C8.81087258,5.76432114 8.89707311,5.60260188 8.89707311,5.45123266 C8.89707311,5.13296917 8.89707311,5.13296917 8.57363695,5.12455976 C8.53606236,5.12391289 8.49701426,5.12132538 8.45870291,5.12003163 L7.66595277,5.12003163 C7.46260794,5.12003163 7.29757446,4.97513117 7.29757446,4.79659311 C7.29757446,4.61805506 7.46260794,4.4731546 7.66595277,4.4731546 L8.38944779,4.4731546 C8.39460508,4.4731546 8.39902562,4.4705671 8.40418292,4.4705671 L8.86907636,4.4705671 C9.08641956,4.4705671 9.26397791,4.32372601 9.26397791,4.1438942 C9.26397791,3.96406239 9.08715632,3.8172213 8.86907636,3.8172213 L5.58829907,3.8172213 C5.47852233,3.8172213 5.37463964,3.77452742 5.30464776,3.70013656 C5.23465588,3.62574571 5.20592237,3.52806728 5.22655156,3.43362323 L5.60966501,1.66506145 C5.65534392,1.48846403 5.78501309,0.987781212 5.63397798,0.765902393 C5.59492988,0.708330339 5.49988827,0.646877021 5.38348072,0.646877021 C5.38348072,0.646877021 5.38348072,0.646877021 5.38348072,0.646877021 C5.23907642,0.646877021 5.09098834,0.748436714 4.96647647,0.931502911 L2.57864822,4.31725724 C2.51160336,4.41234816 2.39298555,4.4705671 2.26552665,4.4705671 L0.372798857,4.4705671 C0.169454026,4.4705671 0.0044205398,4.32566664 0.0044205398,4.14712858 C0.0044205398,3.96859053 0.169454026,3.82369007 0.372798857,3.82369007 L2.0607083,3.82369007 L4.33581279,0.595773737 C4.68650895,0.0782721196 5.1425613,0 5.38200721,0 C5.38200721,0 5.38200721,0 5.38274397,0 C5.74007093,0 6.08634655,0.170775534 6.26537841,0.434054481 C6.53355783,0.828002588 6.44072649,1.36879178 6.32947624,1.79637749 L6.03256332,3.17034428 L8.8683396,3.17034428 C9.49237247,3.17034428 9.99999779,3.60698627 9.99999779,4.1438942 C10.0007345,4.46603896 9.81728214,4.75260548 9.53584111,4.92984978 Z" id="Shape"></path>
                </g>
            </g>
        </g>
    </g>
</svg>