<?xml version="1.0" encoding="UTF-8"?>
<svg width="11px" height="11px" viewBox="0 0 11 11" version="1.1" xmlns="http://www.w3.org/2000/svg" xmlns:xlink="http://www.w3.org/1999/xlink">
    <!-- Generator: Sketch 52.5 (67469) - http://www.bohemiancoding.com/sketch -->
    <title>times-circle</title>
    <desc>Created with Sketch.</desc>
    <g id="Gamer-Details---Medium-Desktop" stroke="none" stroke-width="1" fill="none" fill-rule="evenodd">
        <g id="Gamer-Details---Profile---Leagues---Default" transform="translate(-856.000000, -448.000000)" fill="#F54B5E" fill-rule="nonzero">
            <g id="times-circle" transform="translate(856.000000, 448.000000)">
                <path d="M5.5,0 C2.4616935,0 0,2.4616935 0,5.5 C0,8.53830618 2.4616935,11 5.5,11 C8.53830618,11 11,8.53830618 11,5.5 C11,2.4616935 8.53830618,0 5.5,0 Z M8.04268686,6.82488664 C8.14398585,6.92618532 8.14398585,7.08998719 8.04268686,7.19128587 L7.18919267,8.04262501 C7.087894,8.14392337 6.92409215,8.14392337 6.82279347,8.04262501 L5.42185562,6.6287553 L4.01876263,8.04262501 C3.91746404,8.14392337 3.75366211,8.14392337 3.65236351,8.04262501 L2.80102438,7.18913043 C2.69972581,7.08783206 2.69972581,6.92402988 2.80102438,6.82273151 L4.21489396,5.42179353 L2.80102438,4.01870026 C2.69972581,3.91740166 2.69972581,3.75359971 2.80102438,3.65230111 L3.6545188,2.79880662 C3.75581739,2.69750803 3.91961933,2.69750803 4.02091792,2.79880662 L5.42185562,4.21483161 L6.82494892,2.80096191 C6.92624727,2.69966332 7.09004945,2.69966332 7.1913478,2.80096191 L8.04484231,3.6544564 C8.14614066,3.755755 8.14614066,3.91955695 8.04484231,4.02085555 L6.6288176,5.42179353 L8.04268686,6.82488664 Z" id="Shape"></path>
            </g>
        </g>
    </g>
</svg>